<svg width="248" height="232" viewBox="0 0 248 232" fill="none" xmlns="http://www.w3.org/2000/svg">
<path d="M149.556 63.2877C151.006 67.4801 153.375 66.4947 151.367 70.0107C149.36 73.5326 150.193 74.3897 152.377 75.0369C154.562 75.6783 157.077 76.5821 156.734 78.2964C156.391 80.0107 150.235 75.8183 147.855 77.6375C145.475 79.4567 146.111 84.3488 141.993 81.5966C139.613 80.0106 137.746 78.8328 136.363 78.5996L151.092 100.454H159.249L159.28 100.547L164.726 120.693L173.77 134.127C175.263 133.334 176.701 132.442 178.084 131.456C176.964 131.416 175.942 131.048 175.085 130.29C171.047 126.716 176.401 122.92 179.21 121.089C182.03 119.241 176.805 118.64 174.161 115.037C171.518 111.433 177.704 106.576 173.733 106.314C169.762 106.051 164.94 105.795 164.132 101.591C163.33 97.3866 167.491 98.2496 166.757 94.7044C166.023 91.1593 169.48 90.5004 173.176 91.5149C176.866 92.5295 177.325 89.8298 181.902 91.0485C186.479 92.2671 184.319 97.8531 189.367 99.235C194.416 100.634 193.779 101.672 193.779 101.672C194.14 101.795 194.458 101.987 194.722 102.261C194.942 99.4566 194.875 96.6752 194.514 93.9347C189.716 94.4304 190.034 88.5004 185.953 88.8386C181.847 89.1943 183.603 86.2905 181.572 83.3051C179.54 80.3197 172.668 81.9348 174.063 78.9086C175.459 75.8824 179.289 78.2497 181.088 76.0748C182.887 73.8999 186.687 75.9815 186.687 75.9815C186.95 75.9815 187.213 76.0107 187.477 76.0748C184.227 71.5034 179.981 67.5734 174.908 64.6405C173.702 63.9408 172.448 63.3111 171.163 62.7221C170.251 62.314 169.309 61.9292 168.342 61.5851C161.079 58.9671 153.558 58.5589 146.503 59.9991C147.665 60.4656 148.908 61.4219 149.575 63.3286L149.562 63.2877H149.556ZM158.27 64.209C160.815 65.4393 161.189 64.2382 164.242 66.3606C167.314 68.483 164.046 70.7687 164.046 70.7687C161.862 70.2206 161.568 72.069 158.943 73.6842C156.318 75.2993 156.275 70.4772 155.1 67.5501C153.925 64.6172 155.706 62.9787 158.252 64.1974L158.264 64.209H158.27Z" fill="#D9E4F4"/>
<path d="M141.981 81.5851C146.099 84.3373 145.469 79.451 147.843 77.6259C150.223 75.8067 156.373 79.9933 156.722 78.2848C157.064 76.5706 154.549 75.6668 152.365 75.0254C150.18 74.384 149.348 73.521 151.355 69.9992C153.362 66.4773 150.994 67.4686 149.544 63.2762C148.877 61.3753 147.635 60.4132 146.472 59.9468C145.463 60.1509 144.465 60.3958 143.486 60.6698C141.424 61.2587 139.405 61.9992 137.471 62.903C134.528 64.2558 131.762 65.9701 129.216 68.0109L136.339 78.5822C137.722 78.8271 139.588 79.9933 141.969 81.5793H141.981V81.5851Z" fill="#B2C1E3"/>
<path d="M189.361 99.2055C184.313 97.8061 186.473 92.2377 181.896 91.019C177.319 89.8004 176.86 92.4826 173.17 91.4855C169.48 90.4709 166.035 91.1415 166.751 94.675C167.473 98.2085 163.306 97.3572 164.126 101.561C164.927 105.765 169.755 106.028 173.721 106.284C177.692 106.547 171.524 111.421 174.149 115.007C176.792 118.611 182.018 119.211 179.197 121.06C176.376 122.908 171.04 126.704 175.079 130.261C175.936 131.013 176.958 131.398 178.077 131.427C182.569 128.237 186.43 124.103 189.337 119.2C190.542 117.159 191.576 114.966 192.433 112.669C193.706 109.217 194.452 105.713 194.74 102.22C194.465 101.946 194.146 101.754 193.798 101.631C193.798 101.631 194.434 100.587 189.386 99.1939L189.361 99.2055Z" fill="#B2C1E3"/>
<path d="M181.076 76.04C179.277 78.2149 175.446 75.8475 174.051 78.8738C172.656 81.9 179.528 80.2848 181.559 83.2702C183.591 86.2556 181.835 89.1594 185.941 88.8037C190.022 88.448 189.704 94.3897 194.501 93.8999C194.348 92.7629 194.152 91.6375 193.908 90.518C193.504 88.7221 192.996 86.9728 192.347 85.2585C191.13 81.9991 189.484 78.8912 187.464 76.04C187.201 75.97 186.926 75.9292 186.675 75.9467C186.675 75.9467 182.875 73.8767 181.076 76.04Z" fill="#B2C1E3"/>
<path d="M158.961 73.684C161.586 72.0689 161.868 70.2322 164.065 70.7686C164.065 70.7686 167.326 68.4829 164.261 66.3605C161.189 64.2381 160.815 65.445 158.288 64.2089C155.743 62.9786 153.962 64.6345 155.137 67.5616C156.312 70.4946 156.355 75.3109 158.98 73.6957L158.967 73.684H158.961Z" fill="#B2C1E3"/>
<path d="M208.043 145.386L207.682 147.164C207.572 147.683 207.223 148.097 206.77 148.313C207.033 152.366 208.012 161.951 211.17 162.074H211.818C212.222 162.004 215.153 161.433 216.23 160.132C216.689 159.584 217.264 158.669 217.901 157.847C217.668 158.931 217.472 160.01 217.295 161.106C216.01 169.199 216.243 177.088 216.243 177.088C216.243 177.088 216.285 177.129 216.365 177.211C216.64 177.485 217.417 178.196 218.617 179.018C220.251 180.126 222.698 181.415 225.795 182.004C228.199 182.453 232.85 182.896 234.661 181.566C234.839 181.427 234.992 181.292 235.102 181.129C235.42 180.692 235.42 180.045 235.353 179.036C232.299 174.803 231.742 167.275 231.699 162.849C233.248 164.546 234.728 166.412 235.848 168.027C237.078 169.794 237.88 171.258 237.855 171.794C237.69 175.846 238.327 184.435 238.327 184.435C238.327 184.435 238.424 184.569 238.614 184.721C238.822 184.902 239.165 185.106 239.624 185.199C240.138 185.292 240.48 185.269 240.688 185.199C240.854 185.158 240.939 185.106 240.939 185.106C240.939 185.106 243.62 172.22 243.375 170.027C243.142 167.823 240.994 160.826 239.85 156.056C238.094 148.855 235.34 147.852 235.34 147.852C234.967 147.608 234.563 147.374 234.11 147.17C232.587 146.471 231.277 146.062 230.127 145.829C230.151 146.074 230.127 146.214 229.986 146.307C228.836 147.118 226.804 147.596 224.871 146.634C224.815 146.605 224.785 146.482 224.773 146.278C219.92 147.129 214.376 155.398 213.403 154.779C212.283 154.068 209.157 145.386 209.157 145.386C208.979 145.345 208.796 145.333 208.643 145.333C208.41 145.333 208.202 145.334 208.018 145.374L208.031 145.386H208.043Z" fill="#7A97CD"/>
<path d="M219.327 226.616C218.702 228.33 216.285 229.123 214.872 229.339C213.391 229.572 213.391 230.628 213.391 230.628H222.643C223.194 230.383 223.157 228.313 223.102 227.368C221.028 227.654 219.755 226.919 219.327 226.599V226.61V226.616Z" fill="#1C3154"/>
<path d="M216.646 192.505C217.644 202.243 218.005 214.003 218.139 216.266C218.39 220.196 219.174 226.493 219.174 226.493C219.174 226.493 219.229 226.546 219.327 226.616C219.755 226.919 221.015 227.671 223.102 227.385C223.31 227.356 223.53 227.315 223.763 227.263C223.763 227.263 226.278 218.213 226.847 208.668C226.847 208.517 226.859 208.353 226.878 208.202C226.945 206.942 227.018 205.502 227.086 203.945C224.846 200.248 219.229 190.989 216.298 185.963C216.34 188.179 216.451 190.453 216.659 192.511H216.646V192.505Z" fill="#1D3A51"/>
<path d="M216.353 177.223C216.285 179.193 216.2 182.494 216.285 185.975C219.229 191.001 224.834 200.255 227.073 203.957C227.171 201.806 227.269 199.438 227.361 197.03C223.445 189.199 219.73 181.403 218.605 179.036C217.399 178.226 216.628 177.503 216.353 177.228V177.223Z" fill="#243862"/>
<path d="M216.218 160.144C215.141 161.433 212.21 162.004 211.806 162.086C213.33 162.033 215.374 161.608 217.283 161.112C217.448 160.027 217.656 158.937 217.889 157.853C217.252 158.675 216.671 159.59 216.218 160.138V160.144Z" fill="#6983C1"/>
<path d="M239.63 185.193C239.159 185.1 238.828 184.89 238.62 184.715V184.809C238.553 185.905 237.751 187.438 237.929 187.876C238.106 188.313 238.498 189.561 238.73 189.438C238.963 189.316 238.798 187.835 239.104 188.272C239.391 188.709 239.41 191.502 239.85 190.984C240.291 190.465 241.001 188.354 241.111 187.736C241.178 187.339 240.915 186.08 240.725 185.205C240.517 185.258 240.174 185.298 239.66 185.205L239.63 185.193Z" fill="#FAB17E"/>
<path d="M242.683 226.272C242.769 227.683 242.279 229.205 240.994 229.479C239.709 229.753 240.248 230.657 240.248 230.657H243.693C244.415 230.657 245.217 229.957 245.419 228.657C245.627 227.357 247.107 226.657 247.426 225.601C247.744 224.546 246.098 223.053 246.098 223.053L245.725 222.587C244.966 223.246 243.301 223.957 242.708 224.202C242.665 224.832 242.653 225.596 242.683 226.255V226.266V226.272Z" fill="#1C3154"/>
<path d="M225.788 182.004C222.692 181.415 220.244 180.126 218.611 179.019C219.73 181.386 223.451 189.182 227.367 197.013C230.035 202.365 232.813 207.736 234.906 211.403C240.688 221.496 242.481 224.319 242.481 224.319C242.481 224.319 242.567 224.289 242.702 224.225C243.295 223.98 244.954 223.269 245.718 222.61C245.914 222.447 246.037 222.295 246.092 222.144C246.092 222.144 243.877 202.657 240.009 197.905C237.825 195.223 235.255 187.17 235.126 184.348C235.102 183.619 234.906 182.634 234.643 181.584C232.832 182.914 228.169 182.476 225.776 182.021L225.788 182.01V182.004Z" fill="#1D3A51"/>
<path d="M224.913 142.634C224.913 142.634 224.815 143.59 224.791 144.564C224.815 143.782 224.889 142.931 224.913 142.634Z" fill="#FAB17E"/>
<path d="M224.889 146.646C226.823 147.602 228.842 147.124 230.004 146.319C230.127 146.22 230.157 146.086 230.145 145.841C230.078 145.223 229.662 143.952 229.65 141.229C229.747 141.077 229.827 140.914 229.913 140.733C229.913 140.733 229.166 139.596 229.509 138.897C229.851 138.209 230.004 137.077 229.258 137.252C228.511 137.433 228.609 137.981 228.163 137.596C227.722 137.211 227.857 135.037 226.394 134.623C225.44 134.36 224.155 134.634 223.188 134.692C222.429 136.675 221.462 141.445 222.747 142.016C222.747 142.016 223.702 142.372 224.932 142.553C226.37 142.774 228.193 142.757 229.276 141.678C229.276 141.678 227.698 144.022 224.797 144.552C224.773 145.211 224.754 145.882 224.797 146.278C224.809 146.483 224.852 146.605 224.895 146.634V146.646H224.889Z" fill="#FAB17E"/>
<path d="M229.27 141.689C228.193 142.768 226.364 142.786 224.926 142.564V142.634C224.901 142.937 224.828 143.783 224.803 144.564C227.71 144.028 229.282 141.689 229.282 141.689H229.27Z" fill="#EE9960"/>
<path d="M226.394 134.622C227.857 135.031 227.71 137.211 228.163 137.596C228.603 137.981 228.511 137.433 229.258 137.252C230.004 137.071 229.839 138.208 229.509 138.896C229.16 139.579 229.913 140.733 229.913 140.733C229.913 140.733 229.998 140.681 231.063 139.911C232.213 139.089 233.951 134.996 233.707 133.993C233.682 133.911 233.664 133.812 233.639 133.73C233.707 133.678 233.847 133.649 234.135 133.69C234.135 133.69 233.939 133.509 233.639 133.445C233.651 133.048 233.584 132.308 232.936 132.004C232.936 132.004 233.266 132.267 233.223 132.687C232.599 131.73 231.026 130.827 226.296 130.278C220.043 129.555 221.303 133.853 222.007 134.471C222.258 134.692 222.686 134.716 223.212 134.692C224.191 134.64 225.482 134.348 226.419 134.622H226.406H226.394Z" fill="#2E3B65"/>
<path d="M235.34 179.03C235.2 177.089 234.802 173.771 235.854 168.022C234.735 166.406 233.254 164.541 231.706 162.844C231.748 167.269 232.287 174.815 235.359 179.03H235.346H235.34Z" fill="#6983C1"/>
<path d="M212.124 137.171L213.134 133.608C209.983 132.022 204.892 129.142 201.312 125.637L196.9 138.523C197.494 138.36 204.702 136.43 212.112 137.171H212.124Z" fill="#B2C1E3"/>
<path d="M196.827 138.786L196.912 138.523L201.324 125.637L201.391 125.445C200.853 125.211 200.241 125.474 200.051 126.022L196.043 137.223C195.811 137.864 196.184 138.576 196.845 138.786H196.833H196.827Z" fill="#FFBA83"/>
<path d="M205.595 140.867C205.705 140.827 205.828 140.838 205.956 140.908C205.956 140.908 207.174 141.386 206.954 141.923C206.776 142.36 205.712 142.92 205.198 142.879L204.463 146.535C204.286 147.41 204.867 148.273 205.748 148.453C206.109 148.523 206.47 148.465 206.77 148.331C207.229 148.109 207.572 147.701 207.682 147.182L208.043 145.404L208.306 144.104C208.306 144.104 208.514 142.967 208.569 142.792L209.248 139.41C209.248 139.369 209.261 139.311 209.261 139.27C208.129 139.13 207.021 139.007 205.981 138.914L205.577 140.885L205.589 140.873L205.595 140.867Z" fill="#FFBA83"/>
<path d="M211.457 139.497L212.124 137.182C204.714 136.442 197.506 138.372 196.912 138.535C197.316 138.535 200.951 138.453 205.999 138.902C207.039 138.996 208.129 139.106 209.279 139.258C210.784 139.45 212.375 139.684 214.009 139.981V139.94H213.954L211.464 139.503V139.491L211.457 139.497Z" fill="#7A97CD"/>
<path d="M212.124 137.171C212.124 137.171 215.612 137.322 217.02 138.319C217.087 138.179 217.13 138.045 217.173 137.882C217.766 135.322 216.34 134.844 216.34 134.844L213.146 133.614L212.137 137.176H212.124V137.171Z" fill="#FFBA83"/>
<path d="M212.124 137.17L211.464 139.497L213.954 139.934H214.021C214.407 139.987 216.347 140.156 217.038 138.319C215.625 137.305 212.143 137.17 212.143 137.17H212.13H212.124Z" fill="#ED7E2A"/>
<path d="M206.954 141.934C207.174 141.398 205.956 140.92 205.956 140.92C205.834 140.85 205.705 140.838 205.595 140.879C205.045 141.071 204.739 142.424 204.928 142.768C204.971 142.85 205.069 142.879 205.179 142.891C205.693 142.92 206.758 142.354 206.935 141.934H206.948H206.954Z" fill="#FAB17E"/>
<path d="M208.306 144.086L208.043 145.398C208.22 145.357 208.428 145.346 208.667 145.357C208.667 145.357 208.9 144.127 208.918 143.561C208.93 143.002 209.004 142.535 208.863 142.523C208.722 142.512 208.63 142.605 208.575 142.797C208.52 142.978 208.312 144.109 208.312 144.109V144.08L208.306 144.086Z" fill="#FAB17E"/>
<path d="M84.2589 216.633L83.8 222.004L83.6226 224.114C83.6226 224.114 83.5369 224.622 83.5369 225.321L112.756 219.869C112.841 219.018 112.921 218.103 113.007 217.106C113.184 215.216 113.38 213.082 113.6 210.75L84.2406 216.628L84.2528 216.639L84.2589 216.633Z" fill="#96AEDA"/>
<path d="M164.108 190.301C164.316 193.969 164.566 197.339 164.921 198.954C165.35 200.843 166.347 203.596 167.247 207.321H188.021L183.003 188.686C182.661 188.739 182.3 188.779 181.939 188.808L164.101 190.301H164.114H164.108Z" fill="#B2C1E3"/>
<path d="M157.107 207.322C156.667 206.307 156.263 205.363 155.945 204.529C155.92 205.462 155.877 206.389 155.847 207.322H157.119H157.107Z" fill="#B2C1E3"/>
<path d="M159.237 100.442H151.08L164.713 120.681L159.267 100.535L159.237 100.436V100.442Z" fill="#B2C1E3"/>
<path d="M65.461 198.517C59.7335 198.995 54.3303 196.506 50.9953 191.864C49.0066 189.083 47.997 185.864 48.0092 182.605H41.6637L38.9101 171.771C38.702 171.87 38.4511 171.963 38.1635 172.086C38.139 172.086 38.1084 172.098 38.0778 172.115L34.8286 175.141L35.0489 176.045L35.1039 176.267L35.2814 176.978L42.9181 207.322H146.76C146.056 202.214 145.31 196.68 144.698 191.917L65.4426 198.529L65.4549 198.517H65.461Z" fill="#B2C1E3"/>
<path d="M16.0796 100.442L13.7543 101.212L25.6744 150.727C26.8921 151.369 28.067 151.876 29.0644 152.097L16.0796 100.442Z" fill="#96AEDA"/>
<path d="M42.9487 207.322L35.312 176.978L34.8531 175.141L32.1545 177.648L39.8585 209.636L42.9426 207.322H42.9487Z" fill="#96AEDA"/>
<path d="M28.9236 158.01C28.3974 158.01 27.9017 157.998 27.4183 157.958L29.2051 165.363C30.6553 166.377 32.0566 167.363 33.0908 168.103L30.4901 157.765C29.9516 157.917 29.4254 157.998 28.9297 157.998V158.01H28.9236Z" fill="#96AEDA"/>
<path d="M34.0821 172.074L33.9597 171.596C33.5007 171.473 32.1729 171.106 30.4473 170.581L31.4019 174.564L34.0698 172.074H34.0821Z" fill="#96AEDA"/>
<path d="M184.038 209.637L188.021 207.322H167.247C167.424 208.062 167.589 208.826 167.761 209.637H184.038Z" fill="#7C98CE"/>
<path d="M113.937 207.322H42.9487L39.8646 209.637H82.9678L81.6155 225.578C81.6155 225.578 80.8934 230.494 84.5894 230.494H90.4944V229.053H91.8895C89.6377 229.053 87.7713 229.042 86.5903 229.024C84.0203 228.995 83.5614 226.75 83.5491 225.316C83.5491 224.616 83.6348 224.109 83.6348 224.109L83.8123 221.998L84.2712 216.628L84.6751 211.887L84.8709 209.642H147.145C147.035 208.873 146.937 208.109 146.827 207.328H113.98L113.937 207.316V207.322Z" fill="#7C98CE"/>
<path d="M155.834 207.322C155.81 208.103 155.767 208.884 155.737 209.637H158.141C157.78 208.844 157.438 208.062 157.107 207.322H155.834Z" fill="#7C98CE"/>
<path d="M91.8895 229.065H90.4944V230.528H121.708V229.065H117.045C116.091 229.065 100.921 229.094 91.8773 229.065H91.8895Z" fill="#B2C1E3"/>
<path d="M84.8525 209.636L84.6567 211.899L84.2528 216.639L113.612 210.762L113.765 209.636H84.8464H84.8525Z" fill="#6086C4"/>
<path d="M83.5369 225.316C83.5614 226.768 84.0081 229.001 86.5781 229.024C87.753 229.036 89.6315 229.053 91.8773 229.053H117.045C116.605 229.053 112.811 228.931 112.327 226.354C112.285 226.149 112.272 225.928 112.272 225.695C112.272 225.298 112.45 223.176 112.756 219.864L83.5369 225.316Z" fill="#96AEDA"/>
<path opacity="0.4" d="M83.5369 225.316C83.5614 226.768 84.0081 229.001 86.5781 229.024C87.753 229.036 89.6315 229.053 91.8773 229.053H117.045C116.605 229.053 112.811 228.931 112.327 226.354C112.285 226.149 112.272 225.928 112.272 225.695C112.272 225.298 112.45 223.176 112.756 219.864L83.5369 225.316Z" fill="#6086C4"/>
<path d="M91.8895 229.065C100.934 229.094 116.103 229.065 117.057 229.065H91.8895Z" fill="#B2C1E3"/>
<path opacity="0.4" d="M91.8895 229.065C100.934 229.094 116.103 229.065 117.057 229.065H91.8895Z" fill="#6086C4"/>
<path d="M30.533 152.162C31.4998 151.969 32.6502 151.683 33.7577 151.392L29.3458 134.016L29.095 133.001L26.4943 122.733L25.3317 118.144L24.3343 114.226L22.009 105.037H47.7461C48.0337 103.462 48.3702 101.859 48.7435 100.436H41.4128C40.6662 100.558 39.9075 100.64 39.1732 100.628H30.8879C30.5452 100.628 30.2392 100.558 29.9761 100.436H16.0796L29.0644 152.092C29.6151 152.214 30.1169 152.243 30.533 152.162Z" fill="#B2C1E3"/>
<path d="M34.7368 171.456L34.4492 171.316C34.2718 171.508 34.131 171.631 34.131 171.631C34.131 171.631 34.0759 171.619 33.9658 171.59L34.0882 172.068L34.7368 171.45V171.456Z" fill="#B2C1E3"/>
<path d="M64.6594 105.042H81.5298L83.6042 100.442H62.071C62.9827 102.016 63.8578 103.591 64.6594 105.042Z" fill="#B2C1E3"/>
<path d="M37.9861 168.062L36.8785 163.724L35.0244 156.412L34.8286 155.66C33.4885 156.552 31.9404 157.386 30.484 157.783L33.0846 168.121C34.1616 168.89 34.8714 169.392 34.8714 169.392C34.9387 169.473 34.9816 169.573 35.0244 169.666C35.3854 169.666 35.8015 169.281 36.1564 169.188C37.1355 168.966 37.8147 168.243 37.9983 168.08L37.9861 168.068V168.062Z" fill="#B2C1E3"/>
<path d="M56.5821 105.043C55.7805 104.232 55.0891 103.497 54.5628 102.85L53.749 105.043H56.5821Z" fill="#B2C1E3"/>
<path d="M48.0276 182.616C48.0276 180.441 48.511 178.249 49.4533 176.167L52.9779 168.336C50.616 167.473 48.358 166.173 46.3693 164.406L40.3236 170.051V170.161C40.3236 170.435 40.3236 170.739 40.0176 171.147C39.8769 171.327 39.5587 171.514 38.9223 171.788L41.6759 182.622H48.0214L48.0276 182.616Z" fill="#7A97CD"/>
<path d="M47.3177 135.153C51.7847 131.13 57.7447 129.567 63.3743 130.541C65.3631 130.885 67.3151 131.538 69.1263 132.512C67.3028 131.538 65.3508 130.885 63.3743 130.541C57.7447 129.584 51.7725 131.13 47.3177 135.153Z" fill="#7A97CD"/>
<path d="M38.9774 148.412C39.1548 147.975 39.3812 147.549 39.5036 147.427C39.8769 142.978 41.7187 138.611 45.0475 135.101C51.5767 128.226 61.765 126.815 69.7872 131.048L77.3627 114.244H70.3257C71.0171 114.681 71.6964 115.077 72.5225 115.188C72.6632 115.2 72.7856 115.217 72.9263 115.229C73.991 115.351 74.9701 115.451 74.915 115.707C74.86 115.993 74.248 116.733 72.2471 116.955C70.2584 117.176 70.5888 116.763 69.1753 117.107C67.7801 117.451 66.5196 117.585 66.3421 116.722C66.2748 116.418 66.2993 116.104 66.3177 115.789C66.3421 115.322 66.3727 114.733 66.1953 114.244H50.2794L49.9612 115.107C49.9612 115.107 49.7654 115.118 49.4656 115.107C48.9515 116.821 48.4131 118.722 48.3458 119.392C48.1928 121.037 48.0276 121.544 48.6762 122.652C48.7435 122.774 48.8292 122.897 48.8965 123.019C48.921 123.06 48.9516 123.112 48.9821 123.159C49.5329 124.074 50.0346 124.885 49.796 125.007C49.5084 125.141 48.4804 125.118 46.9873 123.585C45.69 122.244 45.9471 122.092 45.2311 121.421C45.2189 121.421 45.2066 121.392 45.1883 121.381C45.176 121.369 45.1454 121.34 45.1332 121.328C45.0475 121.258 44.968 121.188 44.8701 121.106C44.093 120.488 43.4198 119.859 43.2118 119.311C43.1017 119.007 43.1261 118.722 43.3525 118.477C43.4749 118.343 43.6279 118.214 43.7809 118.092C43.891 118.01 44.0134 117.929 44.1419 117.847C44.1664 117.818 44.2092 117.806 44.2398 117.777C44.7232 117.474 45.2923 117.474 45.8002 117.077C46.2285 116.733 46.6324 115.573 46.9628 114.378C46.8649 114.325 46.767 114.267 46.6997 114.226H24.3526L25.3501 118.144L26.5127 122.733L29.1133 133.001L29.3642 134.016L33.7761 151.392C35.9178 150.815 37.882 150.202 37.882 150.202C37.9922 149.958 38.2431 149.421 38.4205 149.118C38.5184 148.955 38.7509 148.663 39.0018 148.407H38.9896L38.9774 148.412Z" fill="#7A97CD"/>
<path d="M36.8785 163.718L37.9861 168.057L37.9983 168.045C37.9983 168.045 38.1513 168.045 38.1635 168.266L44.3989 162.447C42.4897 160.255 41.1374 157.736 40.3175 155.095C39.9687 153.969 39.7239 152.82 39.5832 151.66C39.3874 151.812 39.1242 151.946 38.751 152.068C38.751 152.261 38.751 152.453 38.6959 152.646C38.6959 152.646 37.007 154.208 34.8225 155.643L35.0183 156.395L36.8724 163.707V163.718H36.8785Z" fill="#7A97CD"/>
<path d="M49.4472 164.745C50.7751 165.637 52.1702 166.331 53.6388 166.855C52.1886 166.336 50.7751 165.637 49.4472 164.745Z" fill="#7A97CD"/>
<path d="M53.3206 106.179L50.2916 114.22H66.2075C66.1647 114.109 66.1218 114.016 66.0668 113.917C65.9138 113.655 65.6935 113.299 65.4426 112.92H65.2101C65.2101 112.92 59.9966 108.483 56.5515 105.019H53.7184L53.29 106.156L53.3145 106.185L53.3206 106.179Z" fill="#6477B9"/>
<path d="M46.6814 114.232C46.559 114.15 46.4733 114.11 46.4733 114.11C46.4733 114.11 46.9139 109.631 47.7461 105.06H22.009L24.3343 114.249H46.6814V114.238V114.232ZM28.9114 110.343C28.275 110.343 27.6264 109.824 27.4612 109.194C27.2959 108.564 27.6937 108.045 28.3301 108.045C28.9665 108.045 29.6151 108.564 29.7803 109.194C29.9455 109.824 29.5478 110.343 28.9114 110.343ZM32.7726 110.343C32.1362 110.343 31.4875 109.824 31.3223 109.194C31.1571 108.564 31.5549 108.045 32.1912 108.045C32.8276 108.045 33.4763 108.564 33.6415 109.194C33.8067 109.824 33.409 110.343 32.7726 110.343ZM36.9213 110.343C36.2849 110.343 35.6363 109.824 35.4711 109.194C35.3059 108.564 35.7036 108.045 36.34 108.045C36.9764 108.045 37.625 108.564 37.7903 109.194C37.9555 109.824 37.5577 110.343 36.9213 110.343Z" fill="#6477B9"/>
<path d="M69.3895 113.625C69.7199 113.818 70.0381 114.022 70.344 114.226H77.381L81.5298 105.037H64.6594C66.8317 108.996 68.4043 112.104 68.4043 112.104C68.4043 112.104 68.3064 112.226 68.0983 112.378C68.5267 112.897 68.9978 113.392 69.3833 113.625H69.3895Z" fill="#6477B9"/>
<path d="M28.3484 108.04C27.712 108.04 27.3265 108.558 27.4795 109.188C27.6447 109.818 28.2811 110.337 28.9298 110.337C29.5784 110.337 29.9516 109.818 29.7987 109.188C29.6335 108.558 28.9971 108.04 28.3484 108.04Z" fill="#EAF2FB"/>
<path d="M32.1912 108.04C31.5549 108.04 31.1693 108.558 31.3223 109.188C31.4875 109.818 32.1239 110.337 32.7726 110.337C33.4212 110.337 33.7945 109.818 33.6415 109.188C33.4885 108.558 32.8399 108.04 32.1912 108.04Z" fill="#EAF2FB"/>
<path d="M36.34 108.04C35.7036 108.04 35.3181 108.558 35.4711 109.188C35.6363 109.818 36.2727 110.337 36.9213 110.337C37.57 110.337 37.9432 109.818 37.7902 109.188C37.625 108.558 36.9886 108.04 36.34 108.04Z" fill="#EAF2FB"/>
<path d="M121.457 33.3287L133.047 31.9176L126.163 50.6638C125.79 51.6901 127.13 52.4714 127.852 51.6376C133.273 45.3403 141.626 32.6873 147.255 26.2092C148.418 24.8798 147.451 22.8156 145.677 22.8156H135.446L145.102 1.19481C145.518 0.279364 144.245 -0.461155 143.639 0.343504L120.295 31.2762C119.615 32.18 120.362 33.4511 121.482 33.317L121.469 33.3287H121.457Z" fill="#EB5732"/>
<path d="M68.4899 80.2146L75.6554 74.9843L78.1582 89.993C78.2989 90.8151 79.486 90.8443 79.6512 90.0221C80.8689 83.8297 81.64 72.3313 82.9311 65.9465C83.1942 64.6345 81.7807 63.62 80.5936 64.273L73.7891 68.0689L72.0329 50.1274C71.9656 49.3577 70.8458 49.346 70.7295 50.0982L66.9112 79.2933C66.801 80.1446 67.7679 80.7161 68.4716 80.1971L68.4838 80.2088L68.4899 80.2146Z" fill="#B2C1E3"/>
<path d="M76.2062 139.042C77.6992 141.369 78.611 143.957 78.972 146.599C78.611 143.957 77.687 141.369 76.2062 139.042Z" fill="#E8EFF9"/>
<path d="M75.172 163.147C71.6046 166.902 66.9418 169.024 62.1322 169.485L57.5122 179.73C56.4597 182.074 56.7228 184.715 58.2159 186.797C59.709 188.89 62.1444 190.004 64.7267 189.794L143.676 183.205C143.48 181.409 143.388 180.179 143.413 179.741C143.511 178.179 144.324 175.071 145.083 172.43L142.33 172.459L138.058 162.505C137.973 162.575 137.905 162.587 137.826 162.558C137.355 162.354 136.883 160.984 137.147 160.721C137.147 160.721 137.189 160.68 137.245 160.622L136.204 158.214L140.506 158.173C141.681 155.281 143.284 150.943 143.798 150.162C144.575 149.013 147.188 148.406 147.188 148.406C147.188 148.406 148.155 148.185 149.966 148.039V147.806C148.914 147.777 147.727 147.613 146.497 147.205C142.697 145.946 146.123 143.479 145.157 140.36C144.465 138.144 144.685 132.156 150.578 131.923C150.578 131.923 151.992 131.071 154.035 131.742C158.57 133.235 167.895 148.039 155.363 147.736C155.363 147.788 155.376 147.847 155.388 147.899C156.232 147.928 157.132 147.969 158.099 148.022C158.099 148.022 161.654 148.406 164.212 153.007C166.231 156.634 169.676 163.316 168.373 165.193C167.956 165.794 164.927 167.537 159.218 167.765C159.243 167.986 159.273 168.231 159.273 168.476C160.491 170.243 163.135 174.348 163.434 177.351C163.532 178.284 163.612 179.759 163.71 181.526L181.217 180.062C183.787 179.841 186.002 178.336 187.134 176.039C188.254 173.724 188.076 171.083 186.638 168.943L119.511 69.305C118.03 67.1009 115.54 65.9231 112.884 66.1447C110.216 66.3662 107.977 67.9406 106.881 70.3604L76.8181 136.995C82.6129 144.803 82.1417 155.812 75.2026 163.124L75.1598 163.135L75.172 163.147ZM131.554 161.777C132.19 162.995 132.576 164.354 132.704 165.829C132.827 167.322 132.68 168.704 132.245 169.981C131.817 171.269 131.15 172.406 130.256 173.421C129.357 174.418 128.225 175.24 126.866 175.887C125.514 176.517 123.978 176.914 122.247 177.053C120.521 177.205 118.954 177.053 117.529 176.669C116.103 176.272 114.873 175.642 113.808 174.809C112.756 173.975 111.899 172.949 111.263 171.753C110.626 170.564 110.241 169.223 110.112 167.73C109.99 166.237 110.143 164.855 110.571 163.538C111 162.237 111.667 161.071 112.56 160.074C113.453 159.077 114.579 158.255 115.907 157.625C117.235 156.995 118.771 156.599 120.484 156.459C122.216 156.319 123.789 156.447 125.227 156.844C126.665 157.24 127.925 157.87 128.971 158.704C130.024 159.538 130.881 160.581 131.517 161.782H131.541L131.554 161.777ZM104.158 91.678L125.692 89.8821L128.139 146.85L111.367 148.249L104.164 91.678H104.158Z" fill="#E8EFF9"/>
<path d="M81.5298 105.042L77.3811 114.232L69.8056 131.036C71.3965 131.87 72.9018 132.926 74.2848 134.214C74.3949 134.307 74.5051 134.418 74.603 134.529C75.4046 135.31 76.1389 136.144 76.7875 137.019L106.851 70.3837C107.946 67.9581 110.186 66.3838 112.854 66.168C115.522 65.9464 118 67.1243 119.481 69.3283L186.608 168.966C188.046 171.1 188.223 173.747 187.103 176.062C185.983 178.377 183.768 179.881 181.186 180.086L163.679 181.549C163.802 184.12 163.942 187.298 164.095 190.301L181.933 188.808C182.294 188.779 182.636 188.739 182.997 188.686C188.266 187.905 192.733 184.663 195.07 179.852C197.573 174.733 197.157 168.844 193.963 164.103L173.757 134.098L164.713 120.663L151.08 100.424L136.351 78.5703L129.228 67.9989L126.836 64.4537C123.532 59.55 118.024 56.9378 112.107 57.4275C106.19 57.9232 101.197 61.4275 98.7736 66.7919L83.6042 100.424L81.5298 105.025V105.037V105.042Z" fill="#EB5732"/>
<path d="M71.2986 133.87C70.6072 133.363 69.8729 132.914 69.1386 132.518C69.8851 132.914 70.6072 133.369 71.2986 133.87Z" fill="#F47D48"/>
<path d="M64.7328 189.794C62.1628 190.016 59.7273 188.89 58.222 186.797C56.729 184.704 56.4658 182.056 57.5183 179.73L62.1383 169.485C59.0542 169.788 55.9151 169.403 52.9718 168.336L49.4472 176.167C48.5049 178.249 48.0337 180.441 48.0214 182.616C48.0092 185.876 49.0189 189.094 51.0076 191.876C54.3425 196.517 59.7457 199.013 65.4732 198.529L144.728 191.916C144.288 188.465 143.914 185.427 143.676 183.223L64.7267 189.811L64.7389 189.8L64.7328 189.794Z" fill="#EB5732"/>
<path d="M120.503 156.436C118.771 156.587 117.253 156.972 115.925 157.602C114.598 158.232 113.478 159.054 112.578 160.051C111.679 161.048 111.018 162.214 110.59 163.514C110.161 164.815 110.008 166.214 110.131 167.707C110.253 169.199 110.645 170.529 111.281 171.73C111.917 172.92 112.774 173.946 113.827 174.785C114.879 175.619 116.121 176.249 117.547 176.645C118.973 177.042 120.533 177.182 122.265 177.03C123.997 176.89 125.526 176.494 126.885 175.864C128.237 175.234 129.363 174.412 130.275 173.398C131.174 172.401 131.835 171.246 132.264 169.963C132.692 168.675 132.845 167.293 132.722 165.812C132.6 164.319 132.208 162.978 131.572 161.759C130.923 160.541 130.079 159.514 129.027 158.681C127.974 157.847 126.72 157.217 125.282 156.821C123.844 156.424 122.253 156.284 120.539 156.436H120.515H120.503Z" fill="#EB5732"/>
<path d="M111.361 148.243L128.133 146.85L125.685 89.8823L104.152 91.6782L111.354 148.249L111.361 148.243Z" fill="#EB5732"/>
<path d="M39.4669 150.138C39.5097 149.794 39.5097 149.153 39.7178 148.645C39.8585 148.29 39.9381 147.987 39.9258 147.823C39.9014 147.456 39.6076 147.328 39.5097 147.427C39.3873 147.549 39.1609 147.975 38.9835 148.412C38.7326 148.675 38.5001 148.96 38.4022 149.124C38.2247 149.409 37.9738 149.957 37.8637 150.208C37.8637 150.208 38.0044 150.331 38.1696 150.552C38.4205 150.879 38.7387 151.427 38.7754 152.074C39.1487 151.952 39.4241 151.8 39.6076 151.666C39.5403 151.159 39.4975 150.651 39.4669 150.144V150.138Z" fill="#FAB17E"/>
<path d="M21.0299 156.01C22.3027 156.791 24.4199 157.736 27.4061 157.952C27.8895 157.993 28.3851 158.004 28.9114 158.004C29.407 158.004 29.9516 157.911 30.4718 157.771C31.922 157.374 33.4701 156.541 34.8163 155.649C37.0009 154.208 38.6898 152.651 38.6898 152.651C38.7448 152.459 38.7571 152.255 38.7448 152.074C38.7204 151.433 38.396 150.885 38.139 150.552C37.9738 150.331 37.8331 150.208 37.8331 150.208C37.8331 150.208 35.8811 150.826 33.7271 151.398C32.6196 151.701 31.4753 151.987 30.5024 152.167C30.0863 152.249 29.5784 152.22 29.0338 152.098C28.0364 151.876 26.8615 151.374 25.6438 150.727C23.6 149.631 21.4399 148.138 19.8795 146.978C20.1304 147.882 20.3752 148.908 20.6016 150.016C20.6689 150.401 20.8341 152.797 21.0055 156.016L21.0361 156.004L21.0299 156.01Z" fill="#ED7E2A"/>
<path d="M1.30798 226.715C1.40589 227.782 1.71184 230.645 2.38494 230.686H6.6561L11.9675 230.656C11.9675 230.656 11.9247 229.385 10.3765 229.123C9.14659 228.901 7.24966 228.178 6.05031 226.878C5.55466 226.989 4.72246 227.14 3.82294 227.14C2.92343 227.14 1.81587 226.866 1.27738 226.703L1.30798 226.715Z" fill="#153D68"/>
<path d="M1.30798 226.715C1.84647 226.867 2.94179 227.152 3.85354 227.152C4.76529 227.152 5.58525 227.001 6.0809 226.89C6.3685 226.82 6.55208 226.767 6.55208 226.767C6.55208 226.767 6.85803 223.852 8.52856 217.444C8.52856 217.444 2.99686 202.779 3.32729 201.683C2.99686 202.779 2.70314 204.068 2.45838 205.45C0.95307 213.98 0.977548 226.622 0.977548 226.622C0.977548 226.622 1.09993 226.663 1.30798 226.715Z" fill="#1D3A51"/>
<path d="M8.51632 217.426C8.97525 215.648 9.55657 213.607 10.2419 211.292C9.95432 208.004 9.85641 204.785 10.144 202.307C10.8049 196.68 8.38782 185.479 6.82744 179.083C5.71987 178.768 4.79589 178.342 4.17174 177.823C4.5756 184.313 5.01617 196.12 3.32729 201.666C2.99686 202.762 8.52856 217.426 8.52856 217.426H8.51632Z" fill="#243862"/>
<path d="M13.173 226.931C13.2831 228.12 13.5891 230.639 14.2377 230.686H18.5089L23.8203 230.657C23.8203 230.657 23.7774 229.386 22.2293 229.123C20.932 228.902 18.9127 228.109 17.7378 226.674C17.2422 226.826 16.2876 227.1 15.8287 227.141C14.8313 227.222 13.8094 227.059 13.173 226.919V226.931Z" fill="#17457C"/>
<path d="M18.5701 189.298L17.6828 188.365C17.4074 188.08 17.5971 187.432 18.1111 186.954L21.4583 183.835C21.5807 181.345 21.6541 179.234 21.6786 177.59C18.98 179.998 11.3617 180.412 6.80908 179.083C8.36946 185.479 10.7926 196.663 10.1257 202.307C9.83805 204.773 9.9482 208.004 10.2236 211.292C10.8722 218.849 12.4938 226.767 12.4938 226.767C12.4938 226.767 12.7446 226.849 13.1546 226.931C13.791 227.071 14.8129 227.234 15.8103 227.152C16.2693 227.111 17.2238 226.837 17.7195 226.686C17.9153 226.633 18.0377 226.592 18.0377 226.592C18.0377 226.592 17.2483 219.677 19.5736 203.397C20.3874 197.7 20.8892 192.389 21.189 187.87L20.0019 188.978C19.4879 189.456 18.8271 189.607 18.5517 189.322L18.5639 189.31L18.5701 189.298Z" fill="#2B4F97"/>
<path d="M17.1015 141.812C17.1015 141.812 17.1688 141.841 17.1994 141.853C17.23 141.485 17.2422 141.101 17.2544 140.745C16.0123 140.296 13.8522 139.404 12.6896 138.348C14.0603 139.031 15.8838 138.908 17.1565 138.704C18.0438 138.553 18.6496 138.378 18.6496 138.378C20.2956 137.76 19.0229 130.844 18.3008 129.614C18.2151 129.48 18.1478 129.351 18.0499 129.229C18.0499 129.229 17.6338 133.87 16.667 133.666C15.7002 133.462 14.6355 133.037 14.7701 134.436C14.9108 135.835 13.8277 138.232 12.4326 138.232C12.2245 138.232 12.0287 138.191 11.8268 138.121C11.8574 138.751 11.8268 139.34 11.7595 139.876C12.3102 139.695 17.0158 141.777 17.0953 141.818L17.1015 141.812Z" fill="#FAB17E"/>
<path d="M21.6786 177.59C21.6786 177.59 21.7459 177.538 21.7765 177.508C21.8621 177.427 21.8622 176.016 21.7887 173.853C10.3949 165.812 8.68154 155.666 8.47348 151.654C9.25062 154.733 11.6126 158.966 16.8261 164.745C17.6155 165.619 19.4145 166.564 21.5684 167.485C24.4199 168.692 27.8773 169.812 30.4473 170.581C32.1729 171.1 33.5007 171.474 33.9597 171.596C34.0698 171.625 34.1249 171.637 34.1249 171.637C34.1249 171.637 34.2656 171.514 34.4431 171.322C34.7858 170.937 35.2447 170.284 35.0122 169.654C34.9816 169.555 34.9265 169.474 34.8592 169.38C34.8592 169.38 34.1555 168.873 33.0724 168.109C32.0199 167.369 30.6248 166.372 29.1868 165.369C26.5066 163.491 23.6551 161.549 22.5903 161.001C22.2599 160.838 21.7336 159.52 21.1095 157.754C21.0789 157.153 21.0422 156.564 21.0116 155.998C20.8341 152.768 20.6812 150.383 20.6077 149.998C20.3874 148.891 20.1366 147.864 19.8857 146.961C19.3166 144.92 18.7903 143.55 18.7903 143.55L10.505 141.701C4.21457 143.538 2.41554 172.675 3.27222 176.552C3.38237 177.03 3.67609 177.456 4.1289 177.823C4.76529 178.342 5.67704 178.768 6.7846 179.083C11.3372 180.395 18.9556 179.998 21.6541 177.59H21.6663H21.6786Z" fill="#FFBA83"/>
<path d="M12.6896 138.348C13.8644 139.404 16.0061 140.29 17.2544 140.745C17.2544 139.8 17.1871 138.978 17.1565 138.704C15.8838 138.908 14.0419 139.03 12.6896 138.348Z" fill="#F9A56C"/>
<path d="M12.4448 138.208C13.84 138.208 14.923 135.812 14.7823 134.412C14.6416 133.013 15.7063 133.439 16.6792 133.643C17.6461 133.847 18.0622 129.206 18.0622 129.206C21.4644 124.127 9.39135 124.972 7.01101 129.136C6.25224 130.477 9.01808 137.188 11.8206 138.092C12.0287 138.162 12.2367 138.203 12.4264 138.203H12.4387L12.4448 138.208Z" fill="#183660"/>
<path d="M18.8148 143.561C18.8148 143.561 18.1907 142.331 17.1994 141.847C17.1688 141.835 17.1321 141.817 17.1015 141.806C17.0158 141.765 12.3163 139.683 11.7656 139.864C11.2148 140.045 10.5356 141.713 10.5356 141.713L18.8209 143.561H18.8148Z" fill="#ED7E2A"/>
<path d="M34.8592 175.141L38.1084 172.115C37.6128 172.249 36.4502 172.115 35.3426 171.73L34.749 171.456L34.1004 172.074L31.4325 174.564L21.4766 183.847L18.1295 186.966L29.7069 176.173L31.616 178.185L20.0386 188.978L21.2258 187.87L32.1668 177.666L34.8653 175.147V175.135L34.8592 175.141Z" fill="#204E84"/>
<path d="M17.6828 188.371L18.5701 189.304C18.8454 189.59 19.494 189.444 20.0203 188.96L31.5977 178.167L29.6885 176.156L18.1111 186.949C17.5971 187.427 17.4074 188.074 17.6828 188.36V188.371Z" fill="#1D3A51"/>
<path d="M45.0537 135.089C41.7187 138.593 39.883 142.961 39.5097 147.415C39.6076 147.334 39.883 147.445 39.9258 147.812C39.9381 147.975 39.8585 148.278 39.7178 148.634C39.5097 149.13 39.5097 149.783 39.4669 150.127C39.4914 150.634 39.5342 151.141 39.6076 151.649C39.7606 152.815 39.9931 153.964 40.3419 155.083C41.1558 157.724 42.5142 160.232 44.4234 162.436L38.188 168.255C38.188 168.395 38.1452 168.622 37.9371 168.995C37.8943 169.077 37.7964 169.27 37.7291 169.404C37.6985 169.456 37.7291 169.526 37.7964 169.526C38.3899 169.567 38.9835 169.334 40.1216 169.579C40.244 169.608 40.2991 169.853 40.3175 170.028L46.3632 164.383C48.3519 166.138 50.5976 167.45 52.9718 168.313C55.9151 169.38 59.0542 169.765 62.1383 169.462C66.9357 168.995 71.6107 166.873 75.1782 163.124C82.1234 155.812 82.5884 144.803 76.7936 136.996C76.145 136.121 75.4107 135.281 74.6091 134.506C74.4989 134.395 74.3888 134.302 74.2909 134.191C72.9202 132.902 71.4149 131.847 69.8117 131.013C61.7895 126.798 51.6011 128.209 45.072 135.066L45.0598 135.077L45.0537 135.089ZM69.1263 132.512C69.8729 132.908 70.5949 133.363 71.2864 133.865C71.935 134.331 72.5592 134.838 73.1527 135.386C74.3582 136.494 75.3679 137.73 76.2062 139.042C77.6992 141.369 78.611 143.958 78.972 146.599C79.7063 152.022 78.0603 157.73 73.9666 162.033C71.3109 164.826 68.0065 166.634 64.5064 167.456C62.432 167.934 60.3025 168.086 58.1853 167.864C56.6372 167.713 55.1013 167.374 53.6205 166.838C52.1702 166.319 50.7567 165.619 49.4288 164.727C48.5966 164.168 47.795 163.538 47.0363 162.838C39.3751 155.701 39.0141 143.777 46.2224 136.191C46.5651 135.824 46.9261 135.48 47.2872 135.147C51.7541 131.124 57.7142 129.561 63.3438 130.535C65.3325 130.879 67.2845 131.532 69.0957 132.506H69.1263V132.512Z" fill="#204E84"/>
<path d="M63.3744 130.541C57.7447 129.567 51.7725 131.13 47.3178 135.153C46.9567 135.479 46.5957 135.823 46.253 136.197C39.0508 143.783 39.4057 155.713 47.0669 162.844C47.8256 163.543 48.615 164.185 49.4594 164.733C50.7873 165.625 52.1825 166.319 53.651 166.844C55.1319 167.38 56.6678 167.718 58.2159 167.87C60.3331 168.074 62.4626 167.94 64.537 167.462C68.0371 166.64 71.3537 164.832 73.9972 162.039C78.0786 157.742 79.7369 152.045 79.0026 146.605C78.6416 143.963 77.7176 141.374 76.2368 139.048C75.3923 137.736 74.3827 136.5 73.1833 135.392C72.5898 134.844 71.9656 134.337 71.317 133.87C70.6255 133.363 69.8912 132.914 69.1569 132.517C67.3334 131.544 65.3814 130.891 63.405 130.547H63.3805L63.3744 130.541Z" fill="#B5CDEB"/>
<path d="M16.8261 164.745C11.6126 158.966 9.25061 154.733 8.47348 151.654C8.68153 155.666 10.3949 165.812 21.7887 173.852C21.7459 172.097 21.6663 169.882 21.5684 167.485C19.4084 166.581 17.6155 165.625 16.8261 164.745Z" fill="#ED7E2A"/>
<path d="M35.3426 171.73C36.4502 172.097 37.6128 172.237 38.1084 172.115C38.1329 172.115 38.1635 172.103 38.188 172.086C38.4756 171.975 38.7265 171.864 38.9345 171.771C39.5709 171.497 39.8891 171.304 40.0299 171.129C40.3481 170.721 40.3175 170.418 40.3358 170.144V170.033C40.3358 169.852 40.2685 169.608 40.14 169.578C39.008 169.345 38.4144 169.578 37.8147 169.526C37.7474 169.526 37.7046 169.456 37.7474 169.403C37.8147 169.269 37.9126 169.059 37.9555 168.995C38.1635 168.628 38.2186 168.395 38.2064 168.255C38.1941 168.051 38.0411 168.033 38.0411 168.033L38.0289 168.045C37.8514 168.226 37.1845 168.937 36.187 169.153C35.826 169.234 35.4099 169.631 35.055 169.631C35.2875 170.261 34.8347 170.931 34.4859 171.304L34.7735 171.444L35.3671 171.718L35.3426 171.73Z" fill="#FAB17E"/>
<path d="M43.7809 118.08C43.6279 118.191 43.4749 118.313 43.3525 118.465C43.4749 118.331 43.6279 118.203 43.7809 118.08Z" fill="#FAB17E"/>
<path d="M46.9567 114.383C46.6385 115.573 46.2224 116.739 45.7941 117.083C45.2801 117.479 44.7171 117.479 44.2337 117.783C44.2092 117.812 44.1664 117.824 44.1358 117.853C44.2031 117.853 44.2337 117.864 44.301 117.882C44.8946 118.733 45.4759 120.127 46.3326 121.223C47.3545 122.512 48.6945 123.06 48.9883 123.165C48.9577 123.124 48.9332 123.083 48.9026 123.025C48.8353 122.902 48.7496 122.78 48.6823 122.657C48.0337 121.561 48.1989 121.042 48.3519 119.398C48.4192 118.727 48.9577 116.826 49.4717 115.112C49.1229 115.112 48.6578 115.071 48.1867 114.931C47.7461 114.809 47.2871 114.576 46.9445 114.383H46.9567Z" fill="#FAB17E"/>
<path d="M43.2118 119.299C43.4199 119.859 44.0807 120.477 44.8701 121.095C44.968 121.176 45.0659 121.246 45.1332 121.316C45.0475 121.246 44.968 121.165 44.8701 121.095C44.1236 120.477 43.4566 119.864 43.2118 119.299Z" fill="#FAB17E"/>
<path d="M46.3387 121.217C45.482 120.121 44.8885 118.739 44.3071 117.876C44.2398 117.876 44.2092 117.865 44.1419 117.847C44.0195 117.929 43.9094 118.01 43.7809 118.092C43.6279 118.203 43.4749 118.325 43.3525 118.477C43.1323 118.722 43.1017 119.013 43.2118 119.311C43.4627 119.87 44.1113 120.489 44.8701 121.107C44.968 121.188 45.0475 121.258 45.1332 121.328C45.1455 121.34 45.176 121.369 45.1883 121.381C45.2005 121.381 45.2128 121.41 45.2311 121.421C45.9654 122.08 45.6901 122.244 46.9873 123.585C48.4804 125.118 49.5023 125.147 49.796 125.007C50.0469 124.885 49.5451 124.075 48.9822 123.159C48.6946 123.048 47.3483 122.518 46.3264 121.217H46.3387Z" fill="#243862"/>
<path d="M66.2259 114.232C66.4033 114.739 66.3911 115.316 66.3483 115.777C67.2906 115.765 68.7102 116.144 70.0687 116.121C71.727 116.08 72.9324 115.246 72.9324 115.246C72.7917 115.205 72.6693 115.194 72.5286 115.176C71.6964 115.065 71.0355 114.669 70.3318 114.232C70.0259 114.039 69.7077 113.824 69.3772 113.631C68.9917 113.398 68.5205 112.902 68.0922 112.383C67.9392 112.494 67.7312 112.605 67.4436 112.71C66.9479 112.891 65.9077 112.931 65.4549 112.931C65.6874 113.316 65.9138 113.672 66.079 113.928C66.1341 114.022 66.1769 114.121 66.2198 114.232H66.232H66.2259Z" fill="#FAB17E"/>
<path d="M70.0809 116.121C68.7286 116.15 67.2845 115.765 66.3605 115.777C66.336 116.08 66.3176 116.395 66.385 116.71C66.5624 117.585 67.823 117.439 69.2181 117.095C70.6133 116.751 70.2828 117.165 72.2899 116.943C74.2786 116.722 74.8906 115.987 74.9579 115.695C75.0129 115.433 74.0339 115.34 72.9691 115.217C72.9691 115.229 71.7637 116.08 70.1054 116.121H70.0809Z" fill="#243862"/>
<path d="M53.3206 106.18L53.7489 105.043L54.5628 102.85C54.1895 102.384 53.9142 101.999 53.7612 101.684C52.5435 99.1534 52.0601 96.7278 50.8301 96.9727C50.6649 97.0018 50.2794 97.1943 49.7103 97.4625C49.5145 97.9289 49.3248 98.4595 49.1412 99.0251L53.3206 106.162V106.174V106.18Z" fill="#243862"/>
<path d="M30.8879 100.634H39.1732C39.9197 100.634 40.6662 100.564 41.4128 100.442C44.7599 99.8821 48.0092 98.2903 49.7103 97.4856C50.2794 97.2116 50.6771 97.0192 50.8301 96.99C52.0478 96.7451 52.5312 99.1649 53.7612 101.701C53.9142 102.005 54.1895 102.401 54.5628 102.868C55.0768 103.497 55.7805 104.249 56.5821 105.06C60.0088 108.523 65.2407 112.961 65.2407 112.961H65.4732C65.9321 112.961 66.9663 112.92 67.4619 112.739C67.7495 112.628 67.9576 112.518 68.1106 112.413C68.3308 112.261 68.4165 112.139 68.4165 112.139C68.4165 112.139 66.8378 109.031 64.6716 105.072C63.87 103.62 63.0011 102.045 62.0832 100.471C59.4275 95.8822 56.4964 91.2525 54.5077 89.3808H35.2998V89.1883C35.1468 89.1883 34.9938 89.1767 34.8408 89.1592C33.7639 89.2816 31.7874 89.4857 29.7681 89.5149C28.9114 92.1154 27.8895 96.3778 29.1011 99.4856C29.2663 99.923 29.5723 100.267 30.0006 100.459C30.2637 100.57 30.5697 100.64 30.9123 100.652L30.8817 100.64L30.8879 100.634Z" fill="#1D3A51"/>
<path d="M33.1703 69.6723C33.5864 69.4099 34.0025 68.6053 34.3329 66.3313C34.1922 65.9639 34.1371 65.5499 34.2106 65.0835C34.2656 64.7161 34.3085 64.3546 34.3513 64.0164C34.7552 64.0572 35.2202 64.0572 35.7893 64.0047C37.2273 63.8531 39.0814 62.6636 40.244 61.8123C40.4398 62.0572 40.605 62.3196 40.7152 62.5529C41.0456 63.305 41.1435 65.1126 40.8804 65.824C40.3664 67.4275 39.6076 68.9843 38.8733 68.9318C38.8733 68.9318 38.5551 68.891 38.0962 68.7802C38.0534 69.0135 37.9983 69.2758 37.9432 69.5732C37.9188 69.7365 37.8882 69.8997 37.8576 70.0688C37.8576 70.0688 42.1471 70.7977 42.8202 72.6169C45.2005 69.0718 41.7799 58.8794 39.9013 57.7716C39.1242 57.3226 38.3777 57.2526 37.9249 57.2643C37.6067 57.2643 37.2885 57.2643 36.9703 57.2118C33.0173 56.6345 30.6247 62.3313 30.484 64.0572C30.2209 67.2176 28.532 67.7015 26.1578 69.684C22.0518 73.1067 22.523 77.0076 24.4016 79.1183C25.3562 76.063 26.5984 73.1767 27.4856 71.9697C28.9542 69.9406 33.1825 69.6957 33.1825 69.6957L33.1703 69.6665V69.6723Z" fill="#243862"/>
<path d="M37.9555 69.6025C36.1993 69.2877 35.2447 68.139 34.8041 67.0836C35.6486 68.069 37.1845 68.5646 38.1084 68.7804C38.5674 68.8912 38.8795 68.932 38.8795 68.932C39.626 68.9845 40.3725 67.4276 40.8865 65.8241C41.1497 65.1128 41.0518 63.3052 40.7213 62.553C40.6112 62.3198 40.446 62.0574 40.2501 61.8125C39.0875 62.6638 37.2334 63.865 35.7954 64.0049C35.2263 64.0574 34.7613 64.0574 34.3574 64.0166C34.3146 64.3606 34.2718 64.7163 34.2167 65.0836C34.1494 65.5501 34.2044 65.9582 34.3391 66.3314C33.9903 68.6055 33.5803 69.4101 33.1764 69.6725C37.521 72.2322 37.8759 70.0807 37.8759 70.0807C37.9065 69.9174 37.931 69.7541 37.9616 69.585L37.9494 69.5967L37.9555 69.6025Z" fill="#FAB17E"/>
<path d="M34.8041 67.0835C35.2631 68.1214 36.1993 69.2876 37.9555 69.6024C38.0105 69.2992 38.0656 69.0252 38.1085 68.8094C37.1845 68.5879 35.6486 68.0981 34.8041 67.1126V67.0835Z" fill="#EE985E"/>
<path d="M40.2501 87.7304C40.3481 87.8121 40.446 87.9112 40.5133 87.9753L40.5928 87.7712H40.5255C40.4582 87.7712 40.3481 87.7421 40.2379 87.7188L40.2501 87.7304Z" fill="#FFBA83"/>
<path d="M40.2807 88.5529L40.3481 88.3722C40.2807 88.343 40.2073 88.3197 40.14 88.2905L40.2807 88.5354V88.5471V88.5529Z" fill="#FFBA83"/>
<path d="M39.4485 88.0454C39.3935 88.0163 39.3384 88.0046 39.2833 87.9929C39.1303 87.9521 38.8244 88.0221 38.5245 88.1037C38.6775 88.3894 38.7999 88.6518 38.8672 88.9142H40.14L40.2501 88.6402C40.1951 88.6402 40.0849 88.6285 39.9625 88.5585C39.8524 88.5061 39.6444 88.2728 39.4485 88.0513V88.0454Z" fill="#FFBA83"/>
<path d="M46.4733 114.092C46.4733 114.092 46.559 114.144 46.6813 114.214C46.7487 114.255 46.8466 114.308 46.9445 114.366C47.2749 114.558 47.7461 114.792 48.1867 114.914C48.6578 115.054 49.129 115.077 49.4717 115.095H49.9673L50.2855 114.232L53.3145 106.191L49.1351 99.0542C48.9944 99.4915 48.8598 99.958 48.7313 100.454C48.358 101.876 48.0276 103.48 47.7338 105.054C46.9016 109.643 46.4611 114.104 46.4611 114.104V114.092H46.4733Z" fill="#1D3A51"/>
<path d="M31.7996 84.2673C30.9123 83.486 30.6798 81.3344 30.6248 79.8184C30.2086 80.4772 29.7558 81.2003 29.3275 81.8708L29.095 82.5122C29.3275 83.69 29.4009 84.5122 29.4438 85.1828C31.6589 85.6784 35.2631 86.3722 35.569 86.8795C35.6118 86.932 35.6363 87.002 35.6669 87.072C35.9973 87.002 36.4991 86.9087 37.007 86.827C35.3916 86.0341 32.8338 85.1711 31.8057 84.2673H31.7996Z" fill="#ED7E2A"/>
<path d="M34.8164 89.1301C34.9693 89.1301 35.1223 89.1418 35.2753 89.1593V89.0776C35.1529 89.0893 34.9999 89.1185 34.8164 89.1301Z" fill="#ED7E2A"/>
<path d="M38.5368 88.1039C38.3165 88.1564 38.1084 88.238 37.9555 88.2847C36.8785 88.6404 36.0891 88.5996 35.7587 88.5587C35.7465 88.7103 35.7159 88.8211 35.7036 88.9028H38.8856C38.8183 88.6579 38.6898 88.3838 38.5429 88.0923V88.1039H38.5368Z" fill="#ED7E2A"/>
<path d="M37.9555 88.2786C38.1084 88.2261 38.3165 88.1562 38.5368 88.0978C38.8427 88.0162 39.1426 87.9462 39.2956 87.9871C39.3384 87.9871 39.3935 88.0162 39.4608 88.0395C39.6566 88.2611 39.8646 88.4943 39.9748 88.5468C40.0972 88.5993 40.2073 88.6284 40.2624 88.6284L40.2869 88.5585L40.1461 88.3136C40.2134 88.3427 40.2991 88.3661 40.3542 88.3952L40.5194 87.9987C40.4337 87.9171 40.3542 87.8354 40.2563 87.7538C40.3664 87.783 40.4643 87.8063 40.5439 87.8063H40.6112L40.6907 87.6022L38.9468 86.7684C38.6959 86.6343 37.827 86.7276 36.9948 86.8617C36.4808 86.9433 35.9851 87.0425 35.6547 87.1066C35.8321 87.5614 35.8076 88.1736 35.7526 88.5876C36.0952 88.6285 36.8724 88.6693 37.9494 88.3136L37.9371 88.2728L37.9555 88.2786Z" fill="#FAB17E"/>
<path d="M35.2753 89.0773V88.8966H35.7036C35.7159 88.8149 35.7342 88.6925 35.7587 88.5526C35.8015 88.1269 35.826 87.5088 35.6608 87.0715C35.6363 87.0015 35.6057 86.9316 35.5629 86.8791C35.2569 86.3835 31.6344 85.6721 29.4376 85.1823C28.5259 84.9782 27.8467 84.815 27.7671 84.7158C27.6447 84.5934 28.2628 83.5497 29.0644 82.2902C29.0766 82.3602 29.0888 82.4418 29.1072 82.5118L29.3397 81.8704C29.7681 81.1882 30.2392 80.471 30.637 79.8179C30.6921 81.3223 30.9246 83.4739 31.8119 84.2669C32.8338 85.1706 35.3916 86.0336 37.0131 86.8266C37.8453 86.6867 38.7142 86.5934 38.9651 86.7333L40.7091 87.5671L44.0807 79.3106C43.6218 76.4477 43.1384 73.5847 42.8936 72.7218C42.8936 72.6809 42.8691 72.6401 42.8508 72.5993C42.1716 70.7801 37.8882 70.0512 37.8882 70.0512C37.8882 70.0512 37.5455 72.2028 33.1887 69.6431C33.1887 69.6431 28.9542 69.9055 27.4918 71.9171C26.6228 73.1241 25.3745 76.0279 24.4077 79.0657C23.1105 83.1881 22.3333 87.5846 23.6734 88.5117C24.836 89.3222 27.3265 89.5088 29.7436 89.4563C31.7629 89.4155 33.7394 89.2231 34.8164 89.1006C34.9938 89.0715 35.1468 89.0598 35.2753 89.0482V89.0773Z" fill="#FFBA83"/>
<path d="M40.6785 87.585L40.5928 87.789L40.5133 87.9931L40.3481 88.3896L40.2807 88.5704L40.2563 88.6403L40.1461 88.9144H35.2631V89.34H55.1196L59.6845 78.0981H44.5274L44.0318 79.3168L40.6601 87.5733L40.6846 87.585H40.6785ZM49.8633 83.7366C49.9734 83.3401 50.3896 83.0252 50.7873 83.0252C51.185 83.0252 51.4237 83.3401 51.3013 83.7366C51.1912 84.1331 50.7751 84.448 50.3773 84.448C49.9796 84.448 49.7409 84.1331 49.8633 83.7366Z" fill="#243862"/>
<path d="M50.3895 84.4476C50.7934 84.4476 51.2034 84.1328 51.3135 83.7363C51.4237 83.3398 51.2034 83.0249 50.7995 83.0249C50.3957 83.0249 49.9857 83.3398 49.8755 83.7363C49.7654 84.1328 49.9857 84.4476 50.3895 84.4476Z" fill="white"/>
<path d="M150.058 145.509C149.838 145.55 149.709 145.561 149.709 145.561C148.712 145.643 147.665 143.112 147.109 141.031C146.803 139.701 147.029 138.541 147.359 137.637C147.61 136.955 148.271 136.448 148.602 136.226C149.25 137.223 151.104 139.8 153.124 139.981C153.76 140.034 154.299 140.034 154.739 139.981C154.794 140.366 154.837 140.762 154.904 141.171C155.014 141.841 154.904 142.418 154.629 142.897C154.629 144.378 154.917 145.69 155.1 146.541C155.198 147.048 155.296 147.433 155.351 147.707C167.883 148.01 158.576 133.206 154.023 131.713C151.973 131.042 150.566 131.894 150.566 131.894C144.673 132.127 144.453 138.109 145.144 140.331C146.111 143.451 142.684 145.917 146.484 147.176C147.714 147.585 148.901 147.754 149.954 147.777C149.954 147.351 150.009 146.803 150.04 146.313C150.04 146.051 150.04 145.765 150.027 145.48L150.052 145.52L150.058 145.509Z" fill="#183660"/>
<path d="M167.632 223.164C167.302 223.286 166.873 223.397 166.445 223.49C166.292 223.531 166.139 223.543 165.986 223.531C165.931 224.254 165.876 225.38 165.919 226.324C166.004 227.846 165.49 229.473 164.108 229.776C162.725 230.079 163.294 231.047 163.294 231.047H167.002C167.779 231.047 168.648 230.295 168.856 228.896C169.076 227.502 170.667 226.744 171.016 225.607C171.365 224.47 169.59 222.866 169.59 222.866L168.984 222.114C168.984 222.114 168.654 222.796 167.626 223.17L167.638 223.158L167.632 223.164Z" fill="#1F457F"/>
<path d="M150.982 226.056C150.511 228.126 147.702 229.041 146.099 229.304C144.496 229.549 144.496 230.703 144.496 230.703H154.452C154.966 230.47 154.868 227.374 154.727 225.333C154.574 225.467 154.035 225.869 152.805 226.208C151.729 226.511 150.982 226.074 150.982 226.074V226.062V226.056Z" fill="#1C3154"/>
<path d="M148.663 158.109L151.276 164.191C151.704 164.325 152.243 164.809 152.243 164.809L152.738 165.427C151.937 166.056 151.771 167.316 151.771 167.316C152.077 167.368 152.365 167.409 152.659 167.45C155.137 167.794 157.303 167.876 159.2 167.806C164.909 167.572 167.938 165.835 168.354 165.228C169.651 163.339 166.213 156.657 164.193 153.042C161.635 148.441 158.08 148.057 158.08 148.057C157.126 147.987 156.214 147.946 155.369 147.934C155.382 148.086 155.369 148.196 155.345 148.249C154.874 148.879 151.802 149.497 150.131 148.523C150.034 148.471 149.991 148.301 149.978 148.086C148.167 148.249 147.2 148.453 147.2 148.453C147.2 148.453 144.587 149.054 143.81 150.208C143.296 150.978 141.693 155.316 140.518 158.22L148.651 158.15L148.663 158.109ZM159.28 158.82C161.103 160.64 161.642 161.287 161.66 161.998C161.66 162.476 155.339 164.558 153.375 165.205C154.855 164.669 158.753 162.902 159.28 158.838V158.826V158.82Z" fill="#FFBA83"/>
<path d="M161.66 161.981C161.648 161.269 161.109 160.628 159.28 158.803C158.741 162.867 154.855 164.651 153.375 165.17C155.339 164.54 161.672 162.447 161.66 161.963V161.975V161.981Z" fill="#ED7E2A"/>
<path d="M155.834 207.321C155.877 206.388 155.902 205.461 155.932 204.528C155.382 203.135 155.021 202.039 154.935 201.421C154.684 199.38 152.518 185.876 147.769 177.951C147.188 176.978 147.384 174.558 147.714 172.406L145.071 172.435C144.312 175.077 143.492 178.185 143.4 179.747C143.376 180.185 143.468 181.421 143.663 183.211C143.896 185.415 144.269 188.47 144.716 191.905C145.322 196.668 146.068 202.202 146.778 207.31C146.888 208.091 146.998 208.872 147.096 209.625C148.149 217.199 149.03 223.374 149.116 223.893C149.336 225.205 150.97 226.027 150.97 226.027C150.97 226.027 151.729 226.464 152.793 226.167C154.023 225.823 154.562 225.426 154.715 225.292C154.739 225.263 154.757 225.251 154.757 225.251C154.757 225.251 155.327 218.05 155.712 209.613C155.755 208.843 155.779 208.079 155.81 207.298L155.834 207.327V207.321Z" fill="#243862"/>
<path d="M164.108 190.301C163.942 187.304 163.82 184.126 163.691 181.549C163.606 179.782 163.514 178.301 163.416 177.374C163.098 174.377 160.473 170.266 159.255 168.5C159.255 168.5 156.642 169.158 153.515 169.403L154.776 172.348L147.72 172.418C147.39 174.569 147.206 177.007 147.776 177.963C152.518 185.893 154.69 199.391 154.941 201.432C155.008 202.033 155.382 203.146 155.938 204.54C156.269 205.374 156.673 206.318 157.101 207.333C157.419 208.074 157.78 208.855 158.135 209.648C160.35 214.511 163.098 220.056 164.328 222.505C164.646 223.135 165.282 223.52 165.974 223.531C166.127 223.531 166.28 223.531 166.433 223.49C166.861 223.397 167.302 223.286 167.62 223.164C168.642 222.796 168.978 222.108 168.978 222.108C168.978 217.205 168.44 213.071 167.748 209.63C167.583 208.82 167.418 208.044 167.234 207.316C166.335 203.578 165.337 200.826 164.909 198.948C164.548 197.333 164.285 193.963 164.095 190.295H164.108V190.301Z" fill="#1D3A51"/>
<path d="M159.2 167.788C157.321 167.87 155.137 167.788 152.659 167.433L153.503 169.403C156.642 169.141 159.243 168.5 159.243 168.5C159.243 168.255 159.231 168.004 159.188 167.788H159.2Z" fill="#243862"/>
<path d="M152.671 167.433C152.383 167.392 152.077 167.351 151.784 167.293C151.398 167.375 150.927 167.497 150.554 167.608C149.544 167.923 148.259 167.223 147.8 166.797C147.341 166.372 146.497 165.631 146.858 165.293C147.145 165.007 149.526 165.619 150.456 164.926H150.413C150.413 164.926 149.599 163.829 149.679 163.678C149.777 163.526 150.719 164.063 151.159 164.156C151.184 164.156 151.227 164.168 151.257 164.185L148.644 158.104L140.512 158.173L136.21 158.214L137.251 160.622C137.471 160.401 138.04 159.94 138.426 160.267C138.842 160.622 138.468 162.156 138.052 162.5L142.323 172.453L145.077 172.424L147.72 172.395L154.776 172.325L153.515 169.38L152.671 167.41V167.421V167.433Z" fill="#B6473D"/>
<path d="M152.738 165.421L152.243 164.803C152.243 164.803 151.716 164.337 151.276 164.185C151.251 164.185 151.208 164.173 151.178 164.156C150.737 164.063 149.783 163.526 149.697 163.678C149.599 163.829 150.431 164.908 150.431 164.908H150.474C149.532 165.608 147.17 164.99 146.876 165.275C146.515 165.619 147.359 166.372 147.818 166.78C148.277 167.188 149.562 167.905 150.572 167.59C150.945 167.479 151.416 167.357 151.802 167.275C151.802 167.275 151.967 166.016 152.769 165.386L152.744 165.415L152.738 165.421Z" fill="#FAB17E"/>
<path d="M138.438 160.272C138.052 159.946 137.483 160.412 137.263 160.628C137.208 160.68 137.165 160.727 137.165 160.727C136.89 160.989 137.373 162.342 137.844 162.564C137.912 162.593 137.997 162.564 138.077 162.511C138.493 162.167 138.866 160.634 138.45 160.278H138.438V160.272Z" fill="#FAB17E"/>
<path d="M150.138 148.494C151.808 149.468 154.88 148.85 155.351 148.22C155.394 148.167 155.406 148.057 155.382 147.905C155.382 147.853 155.382 147.806 155.351 147.742C155.308 147.468 155.21 147.083 155.1 146.576C154.923 145.724 154.629 144.412 154.629 142.931C154.892 142.436 155.014 141.864 154.904 141.205C154.837 140.797 154.782 140.395 154.739 140.016C154.299 140.057 153.76 140.068 153.124 140.016C151.104 139.823 149.25 137.264 148.602 136.267C148.271 136.488 147.604 137.007 147.359 137.678C147.029 138.581 146.79 139.73 147.109 141.071C147.678 143.153 148.712 145.683 149.709 145.602C149.709 145.602 149.832 145.59 150.052 145.549C150.786 145.398 152.555 144.972 153.76 144.004C153.038 145.089 151.851 146.348 150.07 146.389C150.046 146.879 149.991 147.427 149.991 147.853V148.086C150.003 148.307 150.046 148.471 150.144 148.523V148.494H150.138Z" fill="#FAB17E"/>
<path d="M150.07 146.354C151.857 146.313 153.044 145.054 153.76 143.969C152.555 144.943 150.786 145.369 150.052 145.514C150.052 145.8 150.052 146.092 150.064 146.348L150.07 146.354Z" fill="#E9955C"/>
</svg>
