<svg width="45" height="45" viewBox="0 0 45 45" fill="none" xmlns="http://www.w3.org/2000/svg">
<g clip-path="url(#clip0_204_21098)">
<path d="M26.25 31.25C23.055 31.25 21.1725 27.34 19.7988 25.405C19.6804 25.2371 19.5234 25.1001 19.341 25.0055C19.1586 24.9109 18.9561 24.8616 18.7506 24.8616C18.5452 24.8616 18.3427 24.9109 18.1603 25.0055C17.9779 25.1001 17.8209 25.2371 17.7025 25.405C16.3275 27.34 14.4463 31.25 11.25 31.25C5.56127 31.25 1.34628 27.4587 0.270025 21.7263C-1.00497 14.9438 4.48627 8.75 11.3875 8.75H26.1125C33.0138 8.75 38.505 14.9438 37.23 21.7263C36.1538 27.4587 31.9388 31.25 26.25 31.25Z" fill="#66757F"/>
<path d="M22.5 27.5L18.75 23.75L15 27.5L12.5 30C15 30 16.25 33.75 18.75 33.75C21.25 33.75 22.5 30 25 30L22.5 27.5Z" fill="#292F33"/>
<path d="M26.25 31.25C23.055 31.25 21.1725 27.34 19.7988 25.405C19.6804 25.2371 19.5234 25.1001 19.341 25.0055C19.1586 24.9109 18.9561 24.8616 18.7506 24.8616C18.5452 24.8616 18.3427 24.9109 18.1603 25.0055C17.9779 25.1001 17.8209 25.2371 17.7025 25.405C16.3275 27.34 14.4463 31.25 11.25 31.25C5.56127 31.25 1.34628 27.4587 0.270025 21.7263C-1.00497 14.9438 4.48627 8.75 11.3875 8.75H26.1125C33.0138 8.75 38.505 14.9438 37.23 21.7263C36.1538 27.4587 31.9388 31.25 26.25 31.25Z" fill="#FF481B"/>
<path d="M26.25 28.75C24.9488 28.75 23.6088 26.67 22.63 25.15C22.3475 24.7125 22.0838 24.305 21.8363 23.9575C21.4865 23.4645 21.0239 23.0623 20.487 22.7846C19.9501 22.5069 19.3545 22.3617 18.75 22.3613C17.5263 22.3613 16.3738 22.9575 15.6638 23.955C15.415 24.3063 15.1513 24.7125 14.87 25.1513C13.8913 26.67 12.5525 28.75 11.25 28.75C6.86001 28.75 3.59376 25.8813 2.72626 21.265C2.27001 18.8388 2.91001 16.4275 4.52876 14.4763C5.36346 13.4661 6.4112 12.6531 7.59695 12.0953C8.7827 11.5375 10.0771 11.2489 11.3875 11.25H26.1125C28.77 11.25 31.27 12.4263 32.97 14.4763C34.5888 16.4275 35.23 18.8388 34.7725 21.265C33.9063 25.8825 30.64 28.75 26.25 28.75Z" fill="#88C9F9"/>
<path d="M33.4512 14.0775C32.5586 12.9961 31.4376 12.1257 30.1688 11.5288C28.9 10.9318 27.5147 10.6232 26.1125 10.625H11.3875C9.98524 10.6232 8.59999 10.9318 7.33116 11.5288C6.06232 12.1257 4.94136 12.9961 4.04872 14.0775C2.30872 16.175 1.62122 18.7675 2.11247 21.38C3.03872 26.3113 6.53997 29.375 11.25 29.375C12.8925 29.375 14.28 27.2213 15.395 25.49C15.6712 25.06 15.93 24.6613 16.1725 24.3175C16.7662 23.4838 17.7287 22.9863 18.75 22.9863C19.7712 22.9863 20.7337 23.4838 21.3275 24.32C21.57 24.66 21.8287 25.0613 22.105 25.4888C23.22 27.22 24.6075 29.375 26.25 29.375C30.9612 29.375 34.4612 26.3125 35.3875 21.38C35.8787 18.7688 35.19 16.175 33.4512 14.0775ZM34.1587 21.15C33.3512 25.4525 30.3212 28.125 26.25 28.125C25.2887 28.125 23.9537 26.0513 23.155 24.8113C22.8675 24.3663 22.5987 23.9513 22.3462 23.5963C21.9379 23.0227 21.3986 22.5548 20.7731 22.2315C20.1476 21.9082 19.4541 21.7389 18.75 21.7375C17.325 21.7375 15.9812 22.4313 15.1537 23.595C14.8755 23.9962 14.6055 24.4029 14.3437 24.815C13.545 26.0525 12.2112 28.125 11.25 28.125C7.17997 28.125 4.14872 25.4513 3.33997 21.1488C2.91997 18.9088 3.51247 16.6813 5.00997 14.875C5.78603 13.9356 6.76024 13.1796 7.86281 12.6609C8.96538 12.1423 10.169 11.8739 11.3875 11.875H26.1125C28.5837 11.875 30.9075 12.9688 32.49 14.875C33.9862 16.6813 34.58 18.91 34.1587 21.15Z" fill="#292F33"/>
<path d="M15.6187 11.8813L4.39746 23.1026C4.94246 24.7151 5.76121 25.9938 6.89246 26.8576L21.8687 11.8813H15.6187Z" fill="#BBDDF5"/>
<path d="M18.75 18.75C16.4537 18.75 14.1575 24.0187 11.8612 27.7837C12.895 27.0875 14.0262 25.495 14.7187 24.4187C14.98 24.0125 15.225 23.635 15.455 23.3087C16.1137 22.3825 17.3487 21.7125 18.7487 21.7125C19.4497 21.7138 20.1405 21.8797 20.7656 22.1969C21.3907 22.5141 21.9326 22.9738 22.3475 23.5387C22.5775 23.8612 22.8225 24.24 23.0837 24.645C23.785 25.7337 24.4925 27.2 25.6562 27.8162C23.3562 24.05 21.0525 18.75 18.75 18.75Z" fill="#3C96CE"/>
<path d="M32.5 45C30.3077 44.9953 28.1548 44.4164 26.2558 43.321C24.3568 42.2255 22.7779 40.6517 21.6763 38.7562C21.5069 38.4719 21.3957 38.1567 21.3491 37.8291C21.3025 37.5014 21.3214 37.1678 21.4048 36.8475C21.4881 36.5272 21.6343 36.2266 21.8347 35.9632C22.0351 35.6999 22.2858 35.4789 22.5722 35.3132C22.8587 35.1474 23.1752 35.0402 23.5035 34.9977C23.8317 34.9553 24.1651 34.9784 24.4843 35.0658C24.8035 35.1532 25.1022 35.3031 25.363 35.5068C25.6239 35.7105 25.8417 35.964 26.0038 36.2525C26.6653 37.3898 27.6131 38.3341 28.7527 38.9915C29.8924 39.649 31.1843 39.9967 32.5 40C36.6363 40 40 36.6362 40 32.5V2.5C40 1.83696 40.2634 1.20107 40.7322 0.732233C41.2011 0.263392 41.837 0 42.5 0C43.1631 0 43.7989 0.263392 44.2678 0.732233C44.7366 1.20107 45 1.83696 45 2.5V32.5C45 39.3925 39.3925 45 32.5 45Z" fill="#FF481B"/>
<path d="M26.9825 37.6825L22.3175 39.4825C21.6988 39.7192 21.0115 39.7014 20.4058 39.433C19.8002 39.1645 19.3253 38.6674 19.085 38.05C18.8484 37.4313 18.8662 36.744 19.1346 36.1383C19.403 35.5326 19.9002 35.0578 20.5175 34.8175L25.1825 33.0175C25.8013 32.7809 26.4885 32.7987 27.0942 33.0671C27.6999 33.3355 28.1747 33.8327 28.415 34.45C28.6517 35.0688 28.6339 35.756 28.3655 36.3617C28.0971 36.9674 27.5999 37.4422 26.9825 37.6825Z" fill="#292F33"/>
<path d="M40 6.25H45V11.25H40V6.25ZM40 15H45V20H40V15Z" fill="#103B53"/>
</g>
<defs>
<clipPath id="clip0_204_21098">
<rect width="45" height="45" fill="white"/>
</clipPath>
</defs>
</svg>
