<svg width="51" height="51" viewBox="0 0 51 51" fill="none" xmlns="http://www.w3.org/2000/svg">
<path d="M25.6394 31.8749C19.6708 31.6677 2.53003 33.3332 2.53003 39.509C2.53003 45.6848 15.5789 49.4341 26.6793 49.5018C37.7838 49.5695 48.8165 45.892 49.2349 39.7162C49.6492 33.5404 31.608 32.0821 25.6394 31.8749Z" fill="#89AF50"/>
<path d="M24.711 10.0567C24.0536 10.0009 23.7667 10.7898 23.3285 11.3914C22.7826 12.1445 22.0415 13.2003 21.5475 13.5031C21.0534 13.806 20.2366 14.2402 20.3442 14.9495C20.4557 15.6627 21.7666 15.9974 21.7666 15.9974L21.4359 17.121L19.7107 19.7506L16.9734 25.779L38.1583 29.9706C38.1583 29.9706 44.0632 27.815 44.7086 27.0938C45.1748 26.5719 45.2585 26.1615 44.9557 25.4483C44.5214 24.4243 43.8878 23.6912 43.2025 22.6752C42.565 21.7309 41.7721 20.4838 41.7721 20.4838L42.3818 19.1888C42.3818 19.1888 42.9595 18.3999 42.8758 17.607C42.7722 16.6189 42.1905 16.0611 41.6167 15.1567C41.043 14.2522 40.027 12.6943 40.027 12.6943L39.4453 11.503C39.4453 11.503 41.3339 11.2081 41.1944 10.467C41.0589 9.72595 40.4852 9.30759 40.1585 8.8972C39.8278 8.48681 38.4053 6.59423 37.7997 5.71767C37.1981 4.84111 36.3813 3.68166 35.7717 3.66173C35.1182 3.64181 34.6401 4.45861 33.9827 5.47462C33.3253 6.49064 32.7396 7.39908 31.9785 8.06447C30.7434 9.14423 29.3967 10.471 29.9864 11.1085C30.6278 11.7978 31.5761 12.9812 31.5761 12.9812L30.9745 13.8657C30.9745 13.8657 30.2533 14.8538 29.6318 15.5551C29.1178 16.1368 28.536 16.842 28.536 16.842L27.2212 16.348C27.2212 16.348 29.062 15.0929 29.1138 14.7024C29.1696 14.2681 29.1217 13.8139 28.0181 13.3039C26.9941 12.8298 26.2052 11.5827 25.8745 11.1165C25.5438 10.6583 25.233 10.1005 24.711 10.0567Z" fill="#4DA852"/>
<path d="M36.4809 12.005C37.7838 11.9014 38.0069 10.9571 39.3616 10.4869C40.5808 10.0646 41.2104 10.4949 41.2104 10.4949C41.2104 10.4949 41.3219 10.9013 40.9115 11.4272C40.6645 11.742 40.274 11.9651 40.1983 12.3277C40.1226 12.6863 40.2382 13.0489 40.2382 13.0489C40.2382 13.0489 38.5129 14.7741 36.7518 14.7741C34.9907 14.7741 35.0943 13.9055 33.397 13.6187C32.0503 13.3915 30.6677 14.3 30.6677 14.3C30.6677 14.3 30.9506 13.3995 30.8868 12.9772C30.7195 11.8695 29.9943 11.1125 29.9943 11.1125C29.9943 11.1125 30.9506 10.5308 32.3531 10.718C33.7556 10.9053 35.2856 12.0966 36.4809 12.005ZM24.9581 15.7941C26.4642 15.814 26.2092 15.0172 27.3288 14.7343C28.2811 14.4912 29.1218 14.5151 29.1218 14.5151C29.1218 14.5151 29.1257 15.1208 28.803 15.5232C28.56 15.826 28.4205 15.9415 28.4006 16.3001C28.3807 16.6587 28.6157 17.0253 28.6157 17.0253C28.6157 17.0253 28.1057 16.8181 27.1933 17.3082C26.6554 17.599 26.2689 18.4079 24.8983 18.4437C23.7628 18.4756 23.5118 18.0413 22.1491 17.7624C21.3164 17.5911 20.8621 17.9895 20.8621 17.9895C20.8621 17.9895 21.5076 17.0293 21.412 16.4994C21.3164 15.9694 20.5673 15.6547 20.4717 15.2762C20.9458 15.0849 21.3921 15.049 22.3045 15.1088C23.7827 15.2044 23.4759 15.7742 24.9581 15.7941ZM29.8031 19.7108L29.3329 18.7306C29.3329 18.7306 29.9146 18.7306 30.4406 18.4039C30.9665 18.0772 31.4207 17.5512 32.3093 17.6787C33.1978 17.8062 33.8512 19.3283 36.0267 19.3283C37.8396 19.3283 37.987 18.0214 39.8716 18.0413C41.8797 18.0612 42.4296 19.1131 42.4296 19.1131C42.4296 19.1131 42.0789 19.7865 42.0989 20.3323C42.1188 20.8782 42.6288 21.8065 42.6288 21.8065C42.6288 21.8065 41.2143 21.2726 40.2182 21.3085C39.2221 21.3444 37.8595 22.8504 35.8832 22.707C33.8671 22.5596 33.4528 21.2567 32.0025 20.8941C30.5521 20.5315 30.1537 20.914 30.1537 20.914L29.8031 19.7108ZM34.1182 25.5359C35.4968 25.5718 35.6761 26.4882 36.9829 26.4125C38.2898 26.3408 38.497 25.4841 40.1107 25.52C41.7243 25.5558 42.2821 26.4882 43.3141 26.5878C44.4895 26.6994 45.1071 26.4125 45.1071 26.4125C45.1071 26.4125 45.1111 26.7312 44.621 27.3847C44.1309 28.0381 43.1707 28.8708 43.1707 28.8708L35.3334 29.0143L34.1182 25.5359Z" fill="#367C2D"/>
<path d="M37.1662 33.158C37.1662 33.158 38.756 37.3855 41.1625 37.8118C43.5691 38.2381 45.131 38.2341 46.7208 37.8437C48.3105 37.4572 49.1512 35.9471 48.9958 34.437C48.8404 32.927 46.9797 31.8791 46.2426 31.1021C45.5055 30.3252 43.4496 27.2253 40.4653 26.8348C37.3216 26.4284 35.0744 28.9665 35.0744 28.9665L37.1662 33.158ZM10.5626 27.4963C10.5626 27.4963 8.50661 27.301 7.34318 28.2334C6.17974 29.1657 5.86896 30.5602 4.78521 31.2575C3.69747 31.9548 2.64958 31.8392 1.83677 32.927C1.06778 33.9549 1.16341 35.5168 1.69732 36.4173C2.4145 37.6325 3.18747 37.8158 4.76927 37.9393C6.27935 38.0588 8.70185 38.0867 8.70185 38.0867L10.5626 27.4963Z" fill="#484E27"/>
<path d="M30.7275 24.97L26.8706 39.5966L29.4525 39.6803C29.4525 39.6803 31.4686 39.505 32.7316 39.3655C33.9947 39.2261 35.9869 38.9033 35.9869 38.9033L38.3376 34.405L30.7275 24.97Z" fill="#2F2F2F"/>
<path d="M6.13992 37.8077L5.57812 37.3176C5.57812 37.3176 5.89289 35.9151 7.26352 32.3013C8.63414 28.6874 10.3514 24.4441 10.9809 23.1133C11.6105 21.7785 12.1723 19.9577 12.4552 19.7465C12.7341 19.5353 16.1009 19.3242 19.8223 19.2206C23.5437 19.117 30.2374 19.2564 30.4486 19.36C30.6598 19.4636 30.2374 22.4479 30.2374 22.4479L23.9939 39.7042L12.1404 38.5806L6.13992 37.8077Z" fill="#FF481B"/>
<path d="M21.6511 40.5053C21.6511 40.5053 23.1851 40.5411 24.731 40.4375C26.273 40.3339 30.0064 40.0351 30.2534 39.8239C30.5004 39.6128 30.3769 35.5965 30.5203 32.5445C30.6598 29.4924 30.7156 26.8269 30.8869 26.3886C31.0184 26.0539 35.6044 39.1745 35.6044 39.1745L41.1108 38.1943C41.1108 38.1943 37.8755 31.9428 36.3335 29.2414C34.7916 26.54 31.0861 19.3044 30.4725 19.3203C30.0342 19.3283 26.7192 26.7671 25.7431 29.0821C24.5677 31.8631 23.3963 35.0307 22.5914 37.2899C21.95 39.0828 21.6511 40.5053 21.6511 40.5053Z" fill="url(#paint0_radial_204_21082)"/>
<path d="M23.181 38.764C23.1492 39.533 23.0456 40.4095 22.687 40.6287C22.3324 40.8478 15.292 39.8358 12.3914 39.4772C9.32338 39.0987 5.55018 38.254 5.38284 38.0627C5.21948 37.8715 5.36291 36.7479 5.63784 36.473C5.91276 36.198 5.97252 37.1184 5.97252 37.1184C5.97252 37.1184 10.4111 37.995 12.3914 38.2022C15.5151 38.5329 20.6151 39.2142 21.1928 39.0508C21.7666 38.8875 22.0774 37.222 22.5874 37.2937C23.0974 37.3655 23.2089 38.1305 23.181 38.764ZM30.9585 26.2212C30.8749 26.0458 30.7394 26.5359 30.9904 27.6954C31.2056 28.6835 34.9071 39.3377 34.9628 39.4214C35.0186 39.5051 36.6323 39.3377 36.6323 39.3377L39.9473 38.1065L36.0028 34.5724L33.1818 30.1896C33.1818 30.1856 31.0183 26.3566 30.9585 26.2212Z" fill="#9C2D1B"/>
<path d="M39.9952 39.1225C39.9952 39.1225 37.0905 36.7399 36.4132 35.9669C34.3812 33.656 33.2616 31.2016 33.0145 30.7633C32.7675 30.325 31.0343 26.755 30.9506 26.508C30.867 26.261 30.9506 25.9581 31.1977 26.3446C31.4447 26.7271 32.5842 28.9185 33.5325 30.4087C33.7636 30.7673 35.7159 33.6201 36.218 34.162C38.3377 36.453 40.5729 37.9153 40.5729 37.9153L39.9952 39.1225Z" fill="#EA4133"/>
<path d="M35.1821 42.2143L34.7996 43.2264C34.7996 43.2264 34.7438 43.7483 34.8275 43.8559C34.9111 43.9675 39.8119 43.828 39.8119 43.828C39.8119 43.828 39.7561 44.597 39.9753 44.7883C40.1944 44.9795 42.852 44.9516 42.9596 44.8161C43.0711 44.6807 43.0951 43.7204 43.0951 43.7204C43.0951 43.7204 44.6848 43.8041 44.8482 43.7483C45.0115 43.6926 44.8482 42.3498 44.8482 42.3498L43.0672 41.0071L35.1821 42.2143Z" fill="#A05C3C"/>
<path d="M34.9629 40.1068L34.7996 43.2305L39.7601 43.119C39.7601 43.119 39.788 42.0233 39.8717 41.9675C40.0669 41.836 42.9954 41.6368 43.1309 41.8041C43.2664 41.9675 43.2146 43.0632 43.2146 43.0632L44.9119 42.9795C44.9119 42.9795 44.9119 40.8439 44.8282 40.7881C44.7446 40.7323 37.5966 40.1865 36.9113 40.1586C36.222 40.1307 34.935 39.9116 34.9629 40.1068Z" fill="#C67C5D"/>
<path d="M41.8121 32.4329C41.8121 32.4329 40.3697 34.8036 38.4971 36.4053C37.4571 37.2938 36.6324 38.4055 36.7161 39.8837C36.7798 41.0232 37.8675 41.9476 39.4812 42.0193C43.1229 42.1827 43.6449 40.0191 43.8361 38.7322C44.0274 37.4452 43.8561 34.3534 43.8082 34.2657C43.6847 34.0386 43.0871 35.218 42.5771 35.7997C42.0033 36.4571 41.2901 37.007 41.2901 37.007C41.2901 37.007 41.9356 35.3415 42.0352 34.2139C42.1308 33.1501 42.083 32.2974 41.8121 32.4329Z" fill="url(#paint1_radial_204_21082)"/>
<path d="M25.4363 6.11195C24.9542 5.75734 24.221 5.85695 23.8744 6.41874C23.5278 6.98054 23.6593 7.73757 24.241 8.02046C24.8227 8.29937 25.3247 8.11609 25.6275 7.7296C25.9303 7.34312 26.0499 6.56218 25.4363 6.11195Z" fill="white"/>
<path opacity="0.56" d="M27.8986 5.65391C27.5678 5.99656 27.6316 6.47867 27.9225 6.75758C28.2133 7.03649 28.7472 6.92492 28.9504 6.71774C29.2413 6.42688 29.2572 5.86508 28.9504 5.59813C28.7074 5.38695 28.2691 5.27141 27.8986 5.65391Z" fill="white"/>
<path d="M17.4595 1.69346C16.826 1.65362 16.4435 2.27917 16.4674 2.72143C16.4913 3.16768 16.7702 3.72549 17.5471 3.73745C18.4476 3.7494 18.5512 2.82104 18.4755 2.47839C18.4277 2.2712 18.2723 1.74526 17.4595 1.69346ZM2.79697 17.5672C2.98822 18.0692 3.59385 18.4239 4.23135 18.1051C4.86088 17.7903 4.87682 17.105 4.61385 16.6189C4.35088 16.1328 3.65361 16.1049 3.27111 16.2882C2.88861 16.4755 2.5858 17.0134 2.79697 17.5672ZM44.3341 9.7937C43.9914 10.2997 43.9795 10.9372 44.3978 11.3038C44.8162 11.6703 45.5892 11.6345 45.9956 11.0767C46.3781 10.5547 46.2864 9.94909 45.896 9.56659C45.5055 9.18409 44.6767 9.28768 44.3341 9.7937ZM39.0269 2.08393C38.7042 2.42659 38.5806 3.05213 39.0149 3.43065C39.3815 3.7494 39.9911 3.6737 40.282 3.2912C40.5728 2.9087 40.4613 2.32698 40.2063 2.06003C39.9553 1.78909 39.3974 1.68948 39.0269 2.08393ZM11.8216 10.0208C11.8216 10.0208 12.2917 8.57448 12.5507 8.52667C12.8097 8.47885 13.3795 10.0208 13.3795 10.0208C13.3795 10.0208 14.5987 10.0846 14.6943 10.3475C14.7899 10.6065 13.7859 11.3874 13.7859 11.3874C13.7859 11.3874 14.1763 12.7342 14.013 12.8657C13.8496 12.9971 12.5348 12.1684 12.5348 12.1684C12.5348 12.1684 11.447 13.2083 11.1403 13.0449C10.8335 12.8816 11.3674 11.4193 11.3674 11.4193C11.3674 11.4193 10.3115 10.738 10.2956 10.3635C10.2796 9.98893 11.8216 10.0208 11.8216 10.0208Z" fill="white"/>
<defs>
<radialGradient id="paint0_radial_204_21082" cx="0" cy="0" r="1" gradientUnits="userSpaceOnUse" gradientTransform="translate(35.8769 40.3495) scale(12.1412)">
<stop offset="0.423" stop-color="#F3AE3D"/>
<stop offset="0.54" stop-color="#F2A53C"/>
<stop offset="0.733" stop-color="#F08C38"/>
<stop offset="0.976" stop-color="#EC6333"/>
<stop offset="1" stop-color="#EC5F32"/>
</radialGradient>
<radialGradient id="paint1_radial_204_21082" cx="0" cy="0" r="1" gradientUnits="userSpaceOnUse" gradientTransform="translate(39.5175 42.0536) scale(6.61924)">
<stop offset="0.039" stop-color="white"/>
<stop offset="0.149" stop-color="#FDF4DF"/>
<stop offset="0.397" stop-color="#FADD9B"/>
<stop offset="0.605" stop-color="#F7CB6A"/>
<stop offset="0.762" stop-color="#F6C14B"/>
<stop offset="0.851" stop-color="#F5BD40"/>
</radialGradient>
</defs>
</svg>
