<svg width="38" height="38" viewBox="0 0 38 38" fill="none" xmlns="http://www.w3.org/2000/svg">
<path d="M4.75 15.4375C4.75 15.1226 4.87511 14.8205 5.09781 14.5978C5.32051 14.3751 5.62256 14.25 5.9375 14.25H32.0625C32.3774 14.25 32.6795 14.3751 32.9022 14.5978C33.1249 14.8205 33.25 15.1226 33.25 15.4375V34.4375C33.25 34.7524 33.1249 35.0545 32.9022 35.2772C32.6795 35.4999 32.3774 35.625 32.0625 35.625H5.9375C5.62256 35.625 5.32051 35.4999 5.09781 35.2772C4.87511 35.0545 4.75 34.7524 4.75 34.4375V15.4375Z" fill="#FF481B"/>
<path d="M9.5 22.5625C9.5 22.2476 9.62511 21.9455 9.84781 21.7228C10.0705 21.5001 10.3726 21.375 10.6875 21.375H17.8125C18.1274 21.375 18.4295 21.5001 18.6522 21.7228C18.8749 21.9455 19 22.2476 19 22.5625V35.625H9.5V22.5625Z" fill="#D3D6D8"/>
<path d="M21.375 22.5625C21.375 22.2476 21.5001 21.9455 21.7228 21.7228C21.9455 21.5001 22.2476 21.375 22.5625 21.375H27.3125C27.6274 21.375 27.9295 21.5001 28.1522 21.7228C28.3749 21.9455 28.5 22.2476 28.5 22.5625V27.3125C28.5 27.6274 28.3749 27.9295 28.1522 28.1522C27.9295 28.3749 27.6274 28.5 27.3125 28.5H22.5625C22.2476 28.5 21.9455 28.3749 21.7228 28.1522C21.5001 27.9295 21.375 27.6274 21.375 27.3125V22.5625Z" fill="#E6E6E6"/>
<path d="M16.625 5.9375V2.375H10.6875C10.418 2.37548 10.1567 2.46761 9.9465 2.63625L4.009 7.38625C3.724 7.61187 3.6195 7.95625 3.5815 8.30775L3.5625 8.3125V13.0625C3.5625 14.6372 4.18806 16.1474 5.30155 17.2609C6.41505 18.3744 7.92528 19 9.5 19C11.0747 19 12.5849 18.3744 13.6984 17.2609C14.8119 16.1474 15.4375 14.6372 15.4375 13.0625V8.3125L14.4471 8.11538L16.625 5.9375Z" fill="#103B53"/>
<path d="M34.4209 8.31013C34.3853 7.95625 34.2784 7.61425 33.9934 7.38388L28.0559 2.63388C27.8447 2.46558 27.5825 2.37427 27.3125 2.375H21.375V5.9375L23.5529 8.11538L22.5625 8.3125V13.0625C22.5625 14.6372 23.1881 16.1475 24.3016 17.261C25.4151 18.3744 26.9253 19 28.5 19C30.0747 19 31.5849 18.3744 32.6984 17.261C33.8119 16.1475 34.4375 14.6372 34.4375 13.0625V8.3125L34.4209 8.31013Z" fill="#103B53"/>
<path d="M22.5625 2.375L24.9375 8.3125V13.0625C24.9375 14.6372 24.3119 16.1474 23.1984 17.2609C22.0849 18.3744 20.5747 19 19 19C17.4253 19 15.9151 18.3744 14.8016 17.2609C13.6881 16.1474 13.0625 14.6372 13.0625 13.0625V8.3125L15.4375 2.375H22.5625Z" fill="#103B53"/>
</svg>
