<svg width="56" height="56" viewBox="0 0 56 56" fill="none" xmlns="http://www.w3.org/2000/svg">
<g clip-path="url(#clip0_204_21069)">
<path d="M36.0762 37.7388C36.0762 38.7678 35.4418 39.6034 34.6613 39.6034H26.8896C26.1091 39.6034 25.4756 38.7678 25.4756 37.7388C25.4756 36.7098 26.1091 35.875 26.8896 35.875H34.6613C35.4445 35.875 36.0762 36.7098 36.0762 37.7388Z" fill="#42A6EA"/>
<path d="M34.5283 35.9187H32.2419C32.1501 37.3406 31.8972 38.6102 31.4763 39.648H34.5283C35.3097 39.648 35.9423 38.8123 35.9423 37.7833C35.9423 36.7535 35.3097 35.9187 34.5283 35.9187Z" fill="#70C2EF"/>
<path d="M30.1 27.3088C29.869 27.4436 27.3551 34.581 27.3551 34.8505C27.3551 35.12 27.6369 35.2215 27.7401 35.0517C27.8434 34.8855 30.408 27.6772 30.3826 27.5442C30.3546 27.4103 30.1 27.3088 30.1 27.3088Z" fill="#FF481B"/>
<path d="M38.2821 37.9312C38.2314 37.4919 40.0278 34.1783 39.8738 34.2107C39.7198 34.2439 27.5625 34.1442 27.2773 34.2107C26.9946 34.2763 20.9921 41.3454 21.5058 41.3804C22.0194 41.4154 40.18 41.3113 40.2308 41.0733C40.2859 40.8379 38.3364 38.3704 38.2821 37.9312ZM33.9238 38.9794H26.9465C26.3506 38.9794 25.8685 38.3424 25.8685 37.5593C25.8685 36.7762 26.3506 36.1392 26.9465 36.1392H33.9238C34.517 36.1392 34.9991 36.7762 34.9991 37.5593C34.9991 38.3424 34.5144 38.9794 33.9238 38.9794Z" fill="#FF481B"/>
<path d="M8.71938 41.9028C8.71938 41.9028 10.4869 37.7929 10.682 37.6914C10.8745 37.5899 42.1575 40.3654 42.6186 40.5168C43.078 40.6691 43.0404 45.9453 42.8873 45.8946C42.7341 45.8456 8.71851 41.9028 8.71851 41.9028" fill="#9BC2DD"/>
<path d="M9.18137 51.625C9.18137 51.625 0.735872 41.342 1.33175 40.481C1.55137 40.1616 7.05162 41.6299 9.25925 41.9011C11.466 42.1715 50.3659 44.2531 50.778 44.5235C51.1866 44.7947 52.983 48.1101 52.983 48.1101C52.983 48.1101 55.7532 47.7732 55.8565 48.0419C55.9562 48.3131 55.8565 51.6276 55.8565 51.6276L9.184 51.625" fill="#AACCE8"/>
<path d="M8.2845 45.0801C7.0525 44.8018 0.735875 41.343 1.33262 40.4793C1.55225 40.16 7.24412 41.3237 9.45087 41.5941C11.6567 41.8653 50.6371 43.9461 51.044 44.2173C51.4526 44.4903 52.9804 48.1058 52.9804 48.1058C52.9804 48.1058 13.9781 46.3663 8.2845 45.0801Z" fill="#FF481B"/>
<path d="M55.8592 48.0472C55.7559 47.776 52.9857 48.1129 52.9857 48.1129C52.9857 48.1129 51.1893 44.801 50.7798 44.5271C50.5891 44.402 42.4734 43.9085 33.306 43.3704C31.4038 46.3795 29.1139 49.1331 26.8573 51.6295H55.8548C55.8566 51.6321 55.9572 48.3176 55.8565 48.0472" fill="#9BC2DD"/>
<path d="M30.6425 46.9585C41.8705 47.6174 52.9856 48.1127 52.9856 48.1127C52.9856 48.1127 51.4578 44.4945 51.0492 44.2259C50.8593 44.0982 42.4716 43.5889 33.2692 43.0508C32.4383 44.3824 31.5628 45.6857 30.6442 46.9585" fill="#FF481B"/>
<path d="M51.0737 48.1775C47.4119 48.314 44.3371 50.9661 40.5869 50.4385C39.0145 50.2163 37.6154 49.3264 36.2031 48.6115C33.796 47.3961 32.1379 47.4749 29.9504 49.2048C27.1749 51.3905 24.6041 52.0109 21.5014 50.0798C19.5956 48.8898 17.5193 47.4066 15.2206 48.2423C13.6623 48.811 12.2483 49.7665 10.7476 50.4928C8.24863 51.7064 5.79688 51.9103 3.67763 49.8181C2.702 48.8495 1.43063 47.2544 -0.00524902 47.1196V52.2384C-0.00524902 53.249 2.27588 54.0724 5.09163 54.0724H50.7316C53.5448 54.0724 55.8276 53.2516 55.8276 52.2375V49.7411C54.2815 48.8574 52.7205 48.1163 51.0737 48.1775Z" fill="#42A6EA"/>
<path d="M51.0737 50.8199C47.4119 50.9328 44.3371 53.2008 40.5869 52.7502C39.0145 52.562 37.6154 51.8025 36.2031 51.1927C33.796 50.1532 32.1379 50.2214 29.9504 51.6967C27.1749 53.5648 24.6041 54.0915 21.5014 52.4439C19.5956 51.4237 17.5193 50.1593 15.2206 50.875C13.6623 51.365 12.2483 52.1762 10.7476 52.7965C8.24863 53.8352 5.79688 54.0128 3.67763 52.2217C2.702 51.3913 1.43063 50.0298 -0.00524902 49.9099V54.2849C-0.00524902 55.1512 2.27588 55.8538 5.09163 55.8538H50.7316C53.5448 55.8538 55.8276 55.1512 55.8276 54.2849V52.1517C54.2815 51.3974 52.7196 50.7639 51.0729 50.8173" fill="#259EC8"/>
<path d="M51.0737 48.3262C47.4118 48.4619 44.3371 51.114 40.5868 50.5872C39.0144 50.365 37.6153 49.4751 36.2031 48.7585C33.7959 47.544 32.1378 47.6227 29.9503 49.3535C27.1748 51.5375 24.6041 52.1579 21.5013 50.2285C19.5956 49.0376 17.5192 47.5554 15.2206 48.3901C13.6622 48.9589 9.38869 49.5486 5.07931 49.0866C3.71344 48.9396 1.43319 47.4005 -0.00268555 47.2666V54.4346C-0.00268555 55.2965 2.27844 56.0009 5.09419 56.0009H50.7342C53.5473 56.0009 55.8302 55.2965 55.8302 54.4329V49.8846C54.2841 49.0009 52.7222 48.2632 51.0754 48.3262" fill="#42A6EA"/>
</g>
<defs>
<clipPath id="clip0_204_21069">
<rect width="56" height="56" fill="white"/>
</clipPath>
</defs>
</svg>
