<svg width="25" height="24" viewBox="0 0 25 24" fill="none" xmlns="http://www.w3.org/2000/svg">
<path d="M13.3835 0.341003L24.6314 10.8231C25.4187 11.5569 24.8613 12.8112 23.7478 12.8112H22.498V19.7993C22.498 20.726 22.103 21.6147 21.3999 22.27C20.6967 22.9253 19.7431 23.2934 18.7487 23.2934H17.4989V15.1406C17.499 14.2494 17.1336 13.3918 16.4775 12.7434C15.8214 12.095 14.9243 11.7047 13.9696 11.6524L13.7496 11.6466H11.2501C10.2557 11.6466 9.30207 12.0147 8.59894 12.6699C7.89581 13.3252 7.50079 14.2139 7.50079 15.1406V23.2934H6.25103C5.25665 23.2934 4.303 22.9253 3.59987 22.27C2.89674 21.6147 2.50172 20.726 2.50172 19.7993V12.8112H1.25195C0.139659 12.8112 -0.418988 11.5569 0.368366 10.8231L11.6163 0.341003C11.8506 0.122659 12.1685 0 12.4999 0C12.8313 0 13.1491 0.122659 13.3835 0.341003ZM13.7496 13.9759C14.0811 13.9759 14.399 14.0986 14.6334 14.3171C14.8677 14.5355 14.9994 14.8317 14.9994 15.1406V23.2934H10.0003V15.1406C10.0004 14.8553 10.1128 14.58 10.3162 14.3668C10.5196 14.1536 10.7999 14.0175 11.1039 13.9841L11.2501 13.9759H13.7496Z" fill="white"/>
</svg>
