<svg width="23" height="21" viewBox="0 0 23 21" fill="none" xmlns="http://www.w3.org/2000/svg">
<path d="M8.94444 0.791748H1.27778C0.93889 0.791748 0.613882 0.907112 0.374252 1.11246C0.134623 1.31781 0 1.59633 0 1.88674V8.45666C0 8.74707 0.134623 9.02559 0.374252 9.23094C0.613882 9.43629 0.93889 9.55165 1.27778 9.55165H8.94444C9.28333 9.55165 9.60834 9.43629 9.84797 9.23094C10.0876 9.02559 10.2222 8.74707 10.2222 8.45666V1.88674C10.2222 1.59633 10.0876 1.31781 9.84797 1.11246C9.60834 0.907112 9.28333 0.791748 8.94444 0.791748ZM21.7222 11.7416H14.0556C13.7167 11.7416 13.3917 11.857 13.152 12.0623C12.9124 12.2677 12.7778 12.5462 12.7778 12.8366V19.4065C12.7778 19.6969 12.9124 19.9755 13.152 20.1808C13.3917 20.3862 13.7167 20.5015 14.0556 20.5015H21.7222C22.0611 20.5015 22.3861 20.3862 22.6257 20.1808C22.8654 19.9755 23 19.6969 23 19.4065V12.8366C23 12.5462 22.8654 12.2677 22.6257 12.0623C22.3861 11.857 22.0611 11.7416 21.7222 11.7416ZM17.8889 0.791748C15.0701 0.791748 12.7778 2.75616 12.7778 5.1717C12.7778 7.58724 15.0701 9.55165 17.8889 9.55165C20.7077 9.55165 23 7.58724 23 5.1717C23 2.75616 20.7077 0.791748 17.8889 0.791748ZM5.11111 11.7416C2.29233 11.7416 0 13.706 0 16.1216C0 18.5371 2.29233 20.5015 5.11111 20.5015C7.92989 20.5015 10.2222 18.5371 10.2222 16.1216C10.2222 13.706 7.92989 11.7416 5.11111 11.7416Z" fill="white"/>
</svg>
