<svg width="26" height="24" viewBox="0 0 26 24" fill="none" xmlns="http://www.w3.org/2000/svg">
<path d="M0 19.7994C0 21.7793 1.69 23.2934 3.9 23.2934H22.1C24.31 23.2934 26 21.7793 26 19.7994V10.482H0V19.7994ZM22.1 2.32934H19.5V1.16467C19.5 0.465867 18.98 0 18.2 0C17.42 0 16.9 0.465867 16.9 1.16467V2.32934H9.1V1.16467C9.1 0.465867 8.58 0 7.8 0C7.02 0 6.5 0.465867 6.5 1.16467V2.32934H3.9C1.69 2.32934 0 3.84341 0 5.82334V8.15268H26V5.82334C26 3.84341 24.31 2.32934 22.1 2.32934Z" fill="white"/>
</svg>
