<svg width="23" height="22" viewBox="0 0 23 22" fill="none" xmlns="http://www.w3.org/2000/svg">
<path fill-rule="evenodd" clip-rule="evenodd" d="M14.8473 0.983006C15.0706 0.885289 15.3292 0.869179 15.5661 0.938218C15.803 1.00726 15.9989 1.15579 16.1108 1.35118L18.875 6.18905C20.5743 6.30335 21.6406 6.59569 22.3288 7.33973C23.4591 8.56403 23.0083 10.406 22.1065 14.091L21.5677 16.289C20.9561 18.7871 20.6509 20.0356 19.6148 20.7686C18.5786 21.5017 17.1193 21.5017 14.2005 21.5017H8.80004C5.88128 21.5017 4.4219 21.5017 3.38702 20.7686C2.34963 20.0356 2.04318 18.7871 1.43281 16.289L0.894016 14.091C-0.00773493 10.406 -0.459866 8.56403 0.671718 7.33973C1.35996 6.59459 2.42624 6.30335 4.1255 6.18905L6.88978 1.35118C7.00253 1.15734 7.19826 1.01036 7.43431 0.942263C7.67036 0.874163 7.9276 0.890466 8.14998 0.987618C8.37235 1.08477 8.54184 1.2549 8.62149 1.46092C8.70115 1.66695 8.68452 1.89218 8.57523 2.08752L6.27061 6.12092C6.87597 6.11725 7.53993 6.11542 8.2625 6.11542H14.738C15.4606 6.11469 16.1246 6.11652 16.7299 6.12092L14.4253 2.08752C14.3137 1.89194 14.2955 1.66558 14.3746 1.45824C14.4538 1.2509 14.6238 1.08066 14.8473 0.983006ZM5.53464 11.6105C5.53464 11.3919 5.63388 11.1822 5.81053 11.0277C5.98718 10.8731 6.22677 10.7862 6.47658 10.7862H16.5239C16.7738 10.7862 17.0134 10.8731 17.19 11.0277C17.3666 11.1822 17.4659 11.3919 17.4659 11.6105C17.4659 11.8291 17.3666 12.0388 17.19 12.1934C17.0134 12.3479 16.7738 12.4348 16.5239 12.4348H6.47658C6.22677 12.4348 5.98718 12.3479 5.81053 12.1934C5.63388 12.0388 5.53464 11.8291 5.53464 11.6105ZM8.98842 14.0833C8.73861 14.0833 8.49902 14.1701 8.32237 14.3247C8.14572 14.4793 8.04648 14.689 8.04648 14.9076C8.04648 15.1262 8.14572 15.3358 8.32237 15.4904C8.49902 15.645 8.73861 15.7318 8.98842 15.7318H14.0121C14.2619 15.7318 14.5015 15.645 14.6782 15.4904C14.8548 15.3358 14.954 15.1262 14.954 14.9076C14.954 14.689 14.8548 14.4793 14.6782 14.3247C14.5015 14.1701 14.2619 14.0833 14.0121 14.0833H8.98842Z" fill="white"/>
</svg>
